<?xml version="1.0" encoding="UTF-8" standalone="no"?>
<!-- Created with Inkscape (http://www.inkscape.org/) -->

<svg
   xmlns:dc="http://purl.org/dc/elements/1.1/"
   xmlns:cc="http://creativecommons.org/ns#"
   xmlns:rdf="http://www.w3.org/1999/02/22-rdf-syntax-ns#"
   xmlns:svg="http://www.w3.org/2000/svg"
   xmlns="http://www.w3.org/2000/svg"
   xmlns:sodipodi="http://sodipodi.sourceforge.net/DTD/sodipodi-0.dtd"
   xmlns:inkscape="http://www.inkscape.org/namespaces/inkscape"
   width="70"
   height="70"
   id="svg3238"
   version="1.1"
   inkscape:version="0.48.1 r9760"
   sodipodi:docname="tilemill.svg"
   inkscape:export-filename="/Users/diggersf/src/tilemill/platforms/osx/tilemill.png"
   inkscape:export-xdpi="658.28998"
   inkscape:export-ydpi="658.28998">
  <defs
     id="defs3240" />
  <sodipodi:namedview
     id="base"
     pagecolor="#ffffff"
     bordercolor="#666666"
     borderopacity="1.0"
     inkscape:pageopacity="0.0"
     inkscape:pageshadow="2"
     inkscape:zoom="5.6"
     inkscape:cx="39.285714"
     inkscape:cy="32.967174"
     inkscape:document-units="px"
     inkscape:current-layer="layer1"
     showgrid="true"
     inkscape:window-width="1440"
     inkscape:window-height="852"
     inkscape:window-x="0"
     inkscape:window-y="0"
     inkscape:window-maximized="1"
     fit-margin-top="0"
     fit-margin-left="0"
     fit-margin-right="0"
     fit-margin-bottom="0">
    <inkscape:grid
       type="xygrid"
       id="grid3255"
       empspacing="5"
       visible="true"
       enabled="true"
       snapvisiblegridlinesonly="true" />
  </sodipodi:namedview>
  <metadata
     id="metadata3243">
    <rdf:RDF>
      <cc:Work
         rdf:about="">
        <dc:format>image/svg+xml</dc:format>
        <dc:type
           rdf:resource="http://purl.org/dc/dcmitype/StillImage" />
        <dc:title />
      </cc:Work>
    </rdf:RDF>
  </metadata>
  <g
     inkscape:label="Layer 1"
     inkscape:groupmode="layer"
     id="layer1"
     transform="translate(0,-982.36218)">
    <path
       transform="matrix(0.7,0,0,0.7,-371,814.36218)"
       d="m 630,290 c 0,27.61424 -22.38576,50 -50,50 -27.61424,0 -50,-22.38576 -50,-50 0,-27.61424 22.38576,-50 50,-50 27.61424,0 50,22.38576 50,50 z"
       sodipodi:ry="50"
       sodipodi:rx="50"
       sodipodi:cy="290"
       sodipodi:cx="580"
       id="path4575"
       style="color:#000000;fill:#ddeff4;fill-opacity:1;fill-rule:nonzero;stroke:none;stroke-width:1px;marker:none;visibility:visible;display:inline;overflow:visible;enable-background:accumulate"
       sodipodi:type="arc"
       inkscape:export-xdpi="658.28571"
       inkscape:export-ydpi="658.28571" />
    <path
       inkscape:connector-curvature="0"
       id="path4577"
       d="m 26.5,993.36217 -3,3 8,8.00003 1.99999,-4 -7,-7.00003 z m -3.5,3.5 -1.5,1.5 8.5,8.50003 1.5,-1.5 -8.5,-8.50003 z m 24,0 -8.5,8.50003 1.5,1.5 8.5,-8.50003 -1.5,-1.5 z m 2,2 -8,8.00003 4,2 7,-7 -3,-3.00003 z m -14,4.00003 -9.34375,9.3437 -0.65625,-0.3437 -7,7 3,3 3.8125,-3.8125 -0.125,1.125 -3.1875,3.1875 1.5,1.5 1.28125,-1.2813 L 23,1033.3622 c -5,1.0001 -8,5 -8,5 l 40,0 c 0,0 -3,-3.9999 -8,-5 l -1,-8.5 0.5,-0.5 -0.625,-0.5313 -0.15626,-1.25 1.28126,1.2813 1.5,-1.5 -3.1875,-3.1875 -0.81251,-6.8125 -9.49999,-9.5 z m -1.5,11.5 3,0 1,6 -5,0 1,-6 z"
       style="color:#000000;fill:#202020;fill-opacity:1;fill-rule:nonzero;stroke:none;stroke-width:0.055;marker:none;visibility:visible;display:inline;overflow:visible;enable-background:accumulate"
       inkscape:export-filename="/Users/diggersf/path4575.png"
       inkscape:export-xdpi="658.28571"
       inkscape:export-ydpi="658.28571" />
  </g>
</svg>
