<?xml version="1.0" encoding="UTF-8" standalone="no"?>
<!-- Created with Inkscape (http://www.inkscape.org/) -->
<svg
   xmlns:dc="http://purl.org/dc/elements/1.1/"
   xmlns:cc="http://creativecommons.org/ns#"
   xmlns:rdf="http://www.w3.org/1999/02/22-rdf-syntax-ns#"
   xmlns:svg="http://www.w3.org/2000/svg"
   xmlns="http://www.w3.org/2000/svg"
   xmlns:xlink="http://www.w3.org/1999/xlink"
   xmlns:sodipodi="http://sodipodi.sourceforge.net/DTD/sodipodi-0.dtd"
   xmlns:inkscape="http://www.inkscape.org/namespaces/inkscape"
   width="400"
   height="400"
   id="svg2"
   sodipodi:version="0.32"
   inkscape:version="0.46"
   version="1.0"
   sodipodi:docname="sprite.svg"
   inkscape:output_extension="org.inkscape.output.svg.inkscape"
   inkscape:export-filename="/home/devseed/tilemill/tilemill/static/images/sprite.png"
   inkscape:export-xdpi="90"
   inkscape:export-ydpi="90">
  <defs
     id="defs4">
    <linearGradient
       inkscape:collect="always"
       id="linearGradient3212">
      <stop
         style="stop-color:#000000;stop-opacity:0.1882353"
         offset="0"
         id="stop3214" />
      <stop
         style="stop-color:#000000;stop-opacity:0;"
         offset="1"
         id="stop3216" />
    </linearGradient>
    <linearGradient
       inkscape:collect="always"
       id="linearGradient3234">
      <stop
         style="stop-color:#ffffff;stop-opacity:1"
         offset="0"
         id="stop3236" />
      <stop
         style="stop-color:#f4f4f4;stop-opacity:1"
         offset="1"
         id="stop3238" />
    </linearGradient>
    <linearGradient
       inkscape:collect="always"
       id="linearGradient3224">
      <stop
         style="stop-color:#ffffff;stop-opacity:1;"
         offset="0"
         id="stop3226" />
      <stop
         style="stop-color:#ffffff;stop-opacity:0;"
         offset="1"
         id="stop3228" />
    </linearGradient>
    <linearGradient
       inkscape:collect="always"
       id="linearGradient3186">
      <stop
         style="stop-color:#404040;stop-opacity:1"
         offset="0"
         id="stop3188" />
      <stop
         style="stop-color:#404040;stop-opacity:0"
         offset="1"
         id="stop3190" />
    </linearGradient>
    <linearGradient
       inkscape:collect="always"
       id="linearGradient3176">
      <stop
         style="stop-color:#404040;stop-opacity:1"
         offset="0"
         id="stop3178" />
      <stop
         style="stop-color:#303030;stop-opacity:1"
         offset="1"
         id="stop3180" />
    </linearGradient>
    <linearGradient
       id="linearGradient3203"
       inkscape:collect="always">
      <stop
         id="stop3205"
         offset="0"
         style="stop-color:#ffffff;stop-opacity:1" />
      <stop
         id="stop3207"
         offset="1"
         style="stop-color:#e0e0e0;stop-opacity:1" />
    </linearGradient>
    <linearGradient
       inkscape:collect="always"
       id="linearGradient3156">
      <stop
         style="stop-color:#808080;stop-opacity:1;"
         offset="0"
         id="stop3158" />
      <stop
         style="stop-color:#404040;stop-opacity:1"
         offset="1"
         id="stop3160" />
    </linearGradient>
    <linearGradient
       inkscape:collect="always"
       id="linearGradient3171">
      <stop
         style="stop-color:#808080;stop-opacity:1;"
         offset="0"
         id="stop3173" />
      <stop
         style="stop-color:#6a6a6a;stop-opacity:1"
         offset="1"
         id="stop3175" />
    </linearGradient>
    <inkscape:perspective
       sodipodi:type="inkscape:persp3d"
       inkscape:vp_x="0 : 526.18109 : 1"
       inkscape:vp_y="0 : 1000 : 0"
       inkscape:vp_z="744.09448 : 526.18109 : 1"
       inkscape:persp3d-origin="372.04724 : 350.78739 : 1"
       id="perspective10" />
    <linearGradient
       inkscape:collect="always"
       xlink:href="#linearGradient3171"
       id="linearGradient3177"
       x1="0"
       y1="20"
       x2="0"
       y2="40"
       gradientUnits="userSpaceOnUse" />
    <linearGradient
       inkscape:collect="always"
       xlink:href="#linearGradient3156"
       id="linearGradient3162"
       x1="4"
       y1="3"
       x2="4"
       y2="16"
       gradientUnits="userSpaceOnUse" />
    <linearGradient
       inkscape:collect="always"
       xlink:href="#linearGradient3156"
       id="linearGradient3170"
       x1="37"
       y1="3"
       x2="37"
       y2="17"
       gradientUnits="userSpaceOnUse" />
    <linearGradient
       inkscape:collect="always"
       xlink:href="#linearGradient3156"
       id="linearGradient3189"
       x1="53"
       y1="3"
       x2="53"
       y2="17"
       gradientUnits="userSpaceOnUse"
       gradientTransform="translate(5,0)" />
    <linearGradient
       inkscape:collect="always"
       xlink:href="#linearGradient3203"
       id="linearGradient3197"
       gradientUnits="userSpaceOnUse"
       x1="37"
       y1="3"
       x2="37"
       y2="17"
       gradientTransform="translate(0,20)" />
    <linearGradient
       inkscape:collect="always"
       xlink:href="#linearGradient3203"
       id="linearGradient3199"
       gradientUnits="userSpaceOnUse"
       x1="4"
       y1="3"
       x2="4"
       y2="16"
       gradientTransform="translate(0,20)" />
    <linearGradient
       inkscape:collect="always"
       xlink:href="#linearGradient3203"
       id="linearGradient3201"
       gradientUnits="userSpaceOnUse"
       gradientTransform="translate(5,20)"
       x1="53"
       y1="3"
       x2="53"
       y2="17" />
    <linearGradient
       inkscape:collect="always"
       xlink:href="#linearGradient3176"
       id="linearGradient3182"
       x1="0"
       y1="360"
       x2="0"
       y2="400"
       gradientUnits="userSpaceOnUse" />
    <linearGradient
       inkscape:collect="always"
       xlink:href="#linearGradient3186"
       id="linearGradient3192"
       x1="0"
       y1="360"
       x2="0"
       y2="400"
       gradientUnits="userSpaceOnUse" />
    <linearGradient
       inkscape:collect="always"
       xlink:href="#linearGradient3176"
       id="linearGradient3214"
       gradientUnits="userSpaceOnUse"
       x1="0"
       y1="360"
       x2="0"
       y2="400" />
    <linearGradient
       inkscape:collect="always"
       xlink:href="#linearGradient3186"
       id="linearGradient3216"
       gradientUnits="userSpaceOnUse"
       x1="0"
       y1="360"
       x2="0"
       y2="400" />
    <linearGradient
       inkscape:collect="always"
       xlink:href="#linearGradient3234"
       id="linearGradient3219"
       gradientUnits="userSpaceOnUse"
       x1="0"
       y1="360"
       x2="0"
       y2="400"
       gradientTransform="translate(0,-40)" />
    <linearGradient
       inkscape:collect="always"
       xlink:href="#linearGradient3224"
       id="linearGradient3230"
       x1="0"
       y1="320"
       x2="0"
       y2="360"
       gradientUnits="userSpaceOnUse" />
    <linearGradient
       inkscape:collect="always"
       xlink:href="#linearGradient3224"
       id="linearGradient3232"
       gradientUnits="userSpaceOnUse"
       x1="0"
       y1="320"
       x2="0"
       y2="360"
       gradientTransform="translate(31.943819,22.548578)" />
    <linearGradient
       inkscape:collect="always"
       xlink:href="#linearGradient3212"
       id="linearGradient3218"
       x1="20"
       y1="240"
       x2="5"
       y2="225"
       gradientUnits="userSpaceOnUse" />
    <linearGradient
       inkscape:collect="always"
       xlink:href="#linearGradient3203"
       id="linearGradient3220"
       x1="70"
       y1="190"
       x2="70"
       y2="218"
       gradientUnits="userSpaceOnUse" />
    <linearGradient
       inkscape:collect="always"
       xlink:href="#linearGradient3203"
       id="linearGradient3233"
       x1="70"
       y1="190"
       x2="70"
       y2="210"
       gradientUnits="userSpaceOnUse" />
    <linearGradient
       inkscape:collect="always"
       xlink:href="#linearGradient3156"
       id="linearGradient2450"
       gradientUnits="userSpaceOnUse"
       gradientTransform="matrix(-1,0,0,1,215,0)"
       x1="53"
       y1="3"
       x2="53"
       y2="17" />
    <linearGradient
       inkscape:collect="always"
       xlink:href="#linearGradient3156"
       id="linearGradient2460"
       gradientUnits="userSpaceOnUse"
       gradientTransform="translate(86,0)"
       x1="53"
       y1="3"
       x2="53"
       y2="17" />
    <linearGradient
       inkscape:collect="always"
       xlink:href="#linearGradient3203"
       id="linearGradient2462"
       gradientUnits="userSpaceOnUse"
       gradientTransform="matrix(-1,0,0,1,301,20)"
       x1="37"
       y1="3"
       x2="37"
       y2="17" />
    <linearGradient
       inkscape:collect="always"
       xlink:href="#linearGradient3203"
       id="linearGradient2464"
       gradientUnits="userSpaceOnUse"
       gradientTransform="translate(20,20)"
       x1="37"
       y1="3"
       x2="37"
       y2="17" />
    <linearGradient
       inkscape:collect="always"
       xlink:href="#linearGradient3156"
       id="linearGradient2466"
       gradientUnits="userSpaceOnUse"
       gradientTransform="matrix(-1,0,0,1,235,0)"
       x1="53"
       y1="3"
       x2="53"
       y2="17" />
    <linearGradient
       inkscape:collect="always"
       xlink:href="#linearGradient3203"
       id="linearGradient2463"
       gradientUnits="userSpaceOnUse"
       gradientTransform="translate(25,20)"
       x1="37"
       y1="3"
       x2="37"
       y2="17" />
    <linearGradient
       inkscape:collect="always"
       xlink:href="#linearGradient3156"
       id="linearGradient2465"
       gradientUnits="userSpaceOnUse"
       gradientTransform="matrix(-1,0,0,1,240,0)"
       x1="53"
       y1="3"
       x2="53"
       y2="17" />
    <linearGradient
       inkscape:collect="always"
       xlink:href="#linearGradient3156"
       id="linearGradient3287"
       gradientUnits="userSpaceOnUse"
       gradientTransform="matrix(-1,0,0,1,240,0)"
       x1="53"
       y1="3"
       x2="53"
       y2="17" />
    <linearGradient
       inkscape:collect="always"
       xlink:href="#linearGradient3156"
       id="linearGradient2484"
       gradientUnits="userSpaceOnUse"
       gradientTransform="matrix(-1,0,0,1,240,0)"
       x1="53"
       y1="3"
       x2="53"
       y2="17" />
    <linearGradient
       inkscape:collect="always"
       xlink:href="#linearGradient3156"
       id="linearGradient2486"
       gradientUnits="userSpaceOnUse"
       gradientTransform="matrix(-1,0,0,1,240,0)"
       x1="53"
       y1="3"
       x2="53"
       y2="17" />
    <linearGradient
       inkscape:collect="always"
       xlink:href="#linearGradient3156"
       id="linearGradient2488"
       gradientUnits="userSpaceOnUse"
       gradientTransform="matrix(-1.375,0,0,1.375,230,-1.5)"
       x1="53"
       y1="3"
       x2="53"
       y2="17" />
    <linearGradient
       inkscape:collect="always"
       xlink:href="#linearGradient3156"
       id="linearGradient2492"
       gradientUnits="userSpaceOnUse"
       gradientTransform="matrix(-1,0,0,1,240,0)"
       x1="53"
       y1="3"
       x2="53"
       y2="17" />
    <linearGradient
       inkscape:collect="always"
       xlink:href="#linearGradient3156"
       id="linearGradient2495"
       gradientUnits="userSpaceOnUse"
       gradientTransform="matrix(-1.375,0,0,1.375,230,-1.5)"
       x1="53"
       y1="3"
       x2="53"
       y2="17" />
  </defs>
  <sodipodi:namedview
     id="base"
     pagecolor="#ffffff"
     bordercolor="#666666"
     borderopacity="1.0"
     gridtolerance="10000"
     guidetolerance="10"
     objecttolerance="10"
     inkscape:pageopacity="0.0"
     inkscape:pageshadow="2"
     inkscape:zoom="1"
     inkscape:cx="261.92717"
     inkscape:cy="375.92819"
     inkscape:document-units="px"
     inkscape:current-layer="layer1"
     showgrid="true"
     inkscape:snap-bbox="true">
    <inkscape:grid
       type="xygrid"
       id="grid2383"
       visible="true"
       enabled="true" />
  </sodipodi:namedview>
  <metadata
     id="metadata7">
    <rdf:RDF>
      <cc:Work
         rdf:about="">
        <dc:format>image/svg+xml</dc:format>
        <dc:type
           rdf:resource="http://purl.org/dc/dcmitype/StillImage" />
      </cc:Work>
    </rdf:RDF>
  </metadata>
  <g
     inkscape:label="Layer 1"
     inkscape:groupmode="layer"
     id="layer1">
    <path
       style="opacity:1;fill:url(#linearGradient3287);fill-opacity:1;fill-rule:nonzero;stroke:none;stroke-width:0;stroke-linecap:butt;stroke-linejoin:round;marker:none;marker-start:none;marker-mid:none;marker-end:none;stroke-miterlimit:0;stroke-dasharray:none;stroke-dashoffset:0;stroke-opacity:1;visibility:visible;display:inline;overflow:visible;enable-background:accumulate"
       d="M 244 4 C 242.892 4 242 4.892 242 6 L 242 14 C 242 15.108 242.892 16 244 16 L 256 16 C 257.108 16 258 15.108 258 14 L 258 6 C 258 4.892 257.108 4 256 4 L 244 4 z M 245.9375 7 L 247 7 L 247 13 L 245.6875 13 L 245.6875 8.6875 C 245.20924 9.0788084 244.64907 9.3750036 244 9.5625 L 244 8.5 C 244.34162 8.402179 244.72438 8.2404939 245.125 7.96875 C 245.52562 7.694299 245.78843 7.3641361 245.9375 7 z M 253.9375 7 L 255 7 L 255 13 L 253.6875 13 L 253.6875 8.6875 C 253.20923 9.0788084 252.64907 9.3750036 252 9.5625 L 252 8.5 C 252.34162 8.402179 252.72438 8.2404939 253.125 7.96875 C 253.52562 7.694299 253.78843 7.3641361 253.9375 7 z M 250 8 C 250.554 8 251 8.446 251 9 C 251 9.554 250.554 10 250 10 C 249.446 10 249 9.554 249 9 C 249 8.446 249.446 8 250 8 z M 250 11 C 250.554 11 251 11.446 251 12 C 251 12.554 250.554 13 250 13 C 249.446 13 249 12.554 249 12 C 249 11.446 249.446 11 250 11 z "
       id="rect3276" />
    <rect
       style="fill:url(#linearGradient3219);fill-opacity:1.0;fill-rule:nonzero;stroke:none;stroke-width:0;stroke-linecap:butt;stroke-linejoin:round;marker:none;marker-start:none;marker-mid:none;marker-end:none;stroke-miterlimit:0;stroke-dasharray:none;stroke-dashoffset:0;stroke-opacity:1;visibility:visible;display:inline;overflow:visible;enable-background:accumulate"
       id="rect3210"
       width="400"
       height="40"
       x="0"
       y="320" />
    <path
       style="opacity:1;fill:url(#linearGradient3170);fill-opacity:1;fill-rule:nonzero;stroke:none;stroke-width:0;stroke-linecap:butt;stroke-linejoin:round;marker:none;marker-start:none;marker-mid:none;marker-end:none;stroke-miterlimit:0;stroke-dasharray:none;stroke-dashoffset:0;stroke-opacity:1;visibility:visible;display:inline;overflow:visible;enable-background:accumulate"
       d="M 28.5,4 C 26.016,4 24,6.016 24,8.5 C 24,10.984 26.016,13 28.5,13 C 29.35669,13 30.130644,12.728582 30.8125,12.3125 L 34.5,16 L 36,14.5 L 32.3125,10.8125 C 32.728582,10.130644 33,9.35669 33,8.5 C 33,6.016 30.984,4 28.5,4 z M 28.5,6 C 29.88,6 31,7.12 31,8.5 C 31,9.88 29.88,11 28.5,11 C 27.119999,11 26,9.88 26,8.5 C 26,7.119999 27.12,6 28.5,6 z"
       id="path2385" />
    <path
       style="opacity:1;fill:url(#linearGradient3162);fill-opacity:1;fill-rule:nonzero;stroke:none;stroke-width:0;stroke-linecap:butt;stroke-linejoin:round;marker:none;marker-start:none;marker-mid:none;marker-end:none;stroke-miterlimit:0;stroke-dasharray:none;stroke-dashoffset:0;stroke-opacity:1;visibility:visible;display:inline;overflow:visible;enable-background:accumulate"
       d="M 14.5,3 L 13.5,4 L 16,6.5 L 17,5.5 L 17,4 L 16,3 L 14.5,3 z M 13,4.5 L 6,11.5 L 8.5,14 L 15.5,7 L 13,4.5 z M 5,13 L 4,16 L 7,15 L 5,13 z"
       id="path3163" />
    <path
       style="opacity:1;fill:url(#linearGradient3189);fill-opacity:1;fill-rule:nonzero;stroke:none;stroke-width:0;stroke-linecap:butt;stroke-linejoin:round;marker:none;marker-start:none;marker-mid:none;marker-end:none;stroke-miterlimit:0;stroke-dasharray:none;stroke-dashoffset:0;stroke-opacity:1;visibility:visible;display:inline;overflow:visible;enable-background:accumulate"
       d="M 54.75,2 C 53.733673,2 52.87259,2.6679183 52.59375,3.59375 L 52,3 L 50.5,4.5 L 51.5,5.5 L 47,10 L 47,11 L 46,12 L 47,13 L 48,12 L 49,12 L 53.5,7.5 L 54.5,8.5 L 56,7 L 55.40625,6.40625 C 56.332082,6.1274102 57,5.2663273 57,4.25 C 57,3.008 55.992,2 54.75,2 z M 45.5,12.5 L 44.375,15.53125 C 44.148541,15.793991 44,16.126182 44,16.5 C 44,17.328 44.672,18 45.5,18 C 46.328,18 47,17.328 47,16.5 C 47,16.126182 46.851459,15.793991 46.625,15.53125 L 45.5,12.5 z"
       id="path3172" />
    <path
       id="path3191"
       d="M 28.5,24 C 26.016,24 24,26.016 24,28.5 C 24,30.984 26.016,33 28.5,33 C 29.35669,33 30.130644,32.728582 30.8125,32.3125 L 34.5,36 L 36,34.5 L 32.3125,30.8125 C 32.728582,30.130644 33,29.35669 33,28.5 C 33,26.016 30.984,24 28.5,24 z M 28.5,26 C 29.88,26 31,27.12 31,28.5 C 31,29.88 29.88,31 28.5,31 C 27.119999,31 26,29.88 26,28.5 C 26,27.119999 27.12,26 28.5,26 z"
       style="opacity:1;fill:url(#linearGradient3197);fill-opacity:1.0;fill-rule:nonzero;stroke:none;stroke-width:0;stroke-linecap:butt;stroke-linejoin:round;marker:none;marker-start:none;marker-mid:none;marker-end:none;stroke-miterlimit:0;stroke-dasharray:none;stroke-dashoffset:0;stroke-opacity:1;visibility:visible;display:inline;overflow:visible;enable-background:accumulate" />
    <path
       id="path3193"
       d="M 14.5,23 L 13.5,24 L 16,26.5 L 17,25.5 L 17,24 L 16,23 L 14.5,23 z M 13,24.5 L 6,31.5 L 8.5,34 L 15.5,27 L 13,24.5 z M 5,33 L 4,36 L 7,35 L 5,33 z"
       style="opacity:1;fill:url(#linearGradient3199);fill-opacity:1.0;fill-rule:nonzero;stroke:none;stroke-width:0;stroke-linecap:butt;stroke-linejoin:round;marker:none;marker-start:none;marker-mid:none;marker-end:none;stroke-miterlimit:0;stroke-dasharray:none;stroke-dashoffset:0;stroke-opacity:1;visibility:visible;display:inline;overflow:visible;enable-background:accumulate" />
    <path
       id="path3195"
       d="M 54.75,22 C 53.733673,22 52.87259,22.667918 52.59375,23.59375 L 52,23 L 50.5,24.5 L 51.5,25.5 L 47,30 L 47,31 L 46,32 L 47,33 L 48,32 L 49,32 L 53.5,27.5 L 54.5,28.5 L 56,27 L 55.40625,26.40625 C 56.332082,26.12741 57,25.266327 57,24.25 C 57,23.008 55.992,22 54.75,22 z M 45.5,32.5 L 44.375,35.53125 C 44.148541,35.793991 44,36.126182 44,36.5 C 44,37.328 44.672,38 45.5,38 C 46.328,38 47,37.328 47,36.5 C 47,36.126182 46.851459,35.793991 46.625,35.53125 L 45.5,32.5 z"
       style="opacity:1;fill:url(#linearGradient3201);fill-opacity:1.0;fill-rule:nonzero;stroke:none;stroke-width:0;stroke-linecap:butt;stroke-linejoin:round;marker:none;marker-start:none;marker-mid:none;marker-end:none;stroke-miterlimit:0;stroke-dasharray:none;stroke-dashoffset:0;stroke-opacity:1;visibility:visible;display:inline;overflow:visible;enable-background:accumulate" />
    <path
       style="opacity:1;fill:url(#linearGradient3189);fill-opacity:1;fill-rule:nonzero;stroke:none;stroke-width:0;stroke-linecap:butt;stroke-linejoin:round;marker:none;marker-start:none;marker-mid:none;marker-end:none;stroke-miterlimit:0;stroke-dasharray:none;stroke-dashoffset:0;stroke-opacity:1;visibility:visible;display:inline;overflow:visible;enable-background:accumulate;color:#000000"
       d="M 68,3 C 66.896,3 66,3.896 66,5 L 66,6 L 65,6 L 64,7 L 64,8 L 75,8 L 75,7 L 74,6 L 73,6 L 73,5 C 73,3.896 72.104,3 71,3 L 68,3 z M 68,4.5 L 71,4.5 L 71,6 L 68,6 L 68,4.5 z M 65,9 L 65,16 L 66,17 L 73,17 L 74,16 L 74,9 L 73,9 L 72,14 L 72,9 L 70,9 L 69.5,14 L 69,9 L 67,9 L 67,14 L 66,9 L 65,9 z"
       id="rect2439"
       sodipodi:nodetypes="cccccccccccccccccccccccccccccccccc" />
    <path
       sodipodi:nodetypes="cccccccccccccccccccccccccccccccccc"
       id="path3259"
       d="M 68,23 C 66.896,23 66,23.896 66,25 L 66,26 L 65,26 L 64,27 L 64,28 L 75,28 L 75,27 L 74,26 L 73,26 L 73,25 C 73,23.896 72.104,23 71,23 L 68,23 z M 68,24.5 L 71,24.5 L 71,26 L 68,26 L 68,24.5 z M 65,29 L 65,36 L 66,37 L 73,37 L 74,36 L 74,29 L 73,29 L 72,34 L 72,29 L 70,29 L 69.5,34 L 69,29 L 67,29 L 67,34 L 66,29 L 65,29 z"
       style="opacity:1;fill:url(#linearGradient3197);fill-opacity:1;fill-rule:nonzero;stroke:none;stroke-width:0;stroke-linecap:butt;stroke-linejoin:round;marker:none;marker-start:none;marker-mid:none;marker-end:none;stroke-miterlimit:0;stroke-dasharray:none;stroke-dashoffset:0;stroke-opacity:1;visibility:visible;display:inline;overflow:visible;enable-background:accumulate;color:#000000" />
    <g
       id="g3194">
      <rect
         y="360"
         x="0"
         height="40"
         width="400"
         id="rect2404"
         style="opacity:1;fill:url(#linearGradient3182);fill-opacity:1;fill-rule:nonzero;stroke:none;stroke-width:0;stroke-linecap:butt;stroke-linejoin:round;marker:none;marker-start:none;marker-mid:none;marker-end:none;stroke-miterlimit:0;stroke-dasharray:none;stroke-dashoffset:0;stroke-opacity:1;visibility:visible;display:inline;overflow:visible;enable-background:accumulate" />
      <rect
         style="opacity:1;fill:url(#linearGradient3192);fill-opacity:1;fill-rule:nonzero;stroke:none;stroke-width:0;stroke-linecap:butt;stroke-linejoin:round;marker:none;marker-start:none;marker-mid:none;marker-end:none;stroke-miterlimit:0;stroke-dasharray:none;stroke-dashoffset:0;stroke-opacity:1;visibility:visible;display:inline;overflow:visible;enable-background:accumulate"
         id="rect3184"
         width="400"
         height="40"
         x="0"
         y="360" />
    </g>
    <rect
       y="359"
       x="0"
       height="1"
       width="400"
       id="rect3212"
       style="opacity:1;fill:#cccccc;fill-opacity:1;fill-rule:nonzero;stroke:none;stroke-width:0;stroke-linecap:butt;stroke-linejoin:round;marker:none;marker-start:none;marker-mid:none;marker-end:none;stroke-miterlimit:0;stroke-dasharray:none;stroke-dashoffset:0;stroke-opacity:1;visibility:visible;display:inline;overflow:visible;enable-background:accumulate" />
    <path
       style="opacity:1;fill:#cccccc;fill-opacity:1;fill-rule:nonzero;stroke:none;stroke-width:0;stroke-linecap:butt;stroke-linejoin:round;marker:none;marker-start:none;marker-mid:none;marker-end:none;stroke-miterlimit:0;stroke-dasharray:none;stroke-dashoffset:0;stroke-opacity:1;visibility:visible;display:inline;overflow:visible;enable-background:accumulate"
       d="M 0 240 L 0 241 L 1 240 L 0 240 z M 4 240 L 0 244 L 0 246 L 6 240 L 4 240 z M 9 240 L 0 249 L 0 250 L 0 251 L 1 250 L 10 241 L 10 240 L 9 240 z M 10 244 L 4 250 L 0 254 L 0 256 L 6 250 L 10 246 L 10 244 z M 10 249 L 9 250 L 0 259 L 0 260 L 0 261 L 1 260 L 10 251 L 10 250 L 10 249 z M 10 254 L 4 260 L 0 264 L 0 266 L 6 260 L 10 256 L 10 254 z M 10 259 L 9 260 L 0 269 L 0 270 L 0 271 L 1 270 L 10 261 L 10 260 L 10 259 z M 10 264 L 4 270 L 0 274 L 0 276 L 6 270 L 10 266 L 10 264 z M 10 269 L 9 270 L 0 279 L 0 280 L 0 281 L 1 280 L 10 271 L 10 270 L 10 269 z M 10 274 L 4 280 L 0 284 L 0 286 L 6 280 L 10 276 L 10 274 z M 10 279 L 9 280 L 0 289 L 0 290 L 0 291 L 1 290 L 10 281 L 10 280 L 10 279 z M 10 284 L 4 290 L 0 294 L 0 296 L 6 290 L 10 286 L 10 284 z M 10 289 L 9 290 L 0 299 L 0 300 L 0 301 L 1 300 L 10 291 L 10 290 L 10 289 z M 10 294 L 4 300 L 0 304 L 0 306 L 6 300 L 10 296 L 10 294 z M 10 299 L 9 300 L 0 309 L 0 310 L 0 311 L 1 310 L 10 301 L 10 300 L 10 299 z M 10 304 L 4 310 L 0 314 L 0 316 L 6 310 L 10 306 L 10 304 z M 10 309 L 9 310 L 0 319 L 0 320 L 1 320 L 10 311 L 10 310 L 10 309 z M 10 314 L 4 320 L 6 320 L 10 316 L 10 314 z M 10 319 L 9 320 L 10 320 L 10 319 z "
       id="path3319" />
    <path
       id="path3410"
       d="M 10,240 L 10,241 L 11,240 L 10,240 z M 14,240 L 10,244 L 10,246 L 16,240 L 14,240 z M 19,240 L 10,249 L 10,250 L 10,251 L 11,250 L 20,241 L 20,240 L 19,240 z M 20,244 L 14,250 L 10,254 L 10,256 L 16,250 L 20,246 L 20,244 z M 20,249 L 19,250 L 10,259 L 10,260 L 10,261 L 11,260 L 20,251 L 20,250 L 20,249 z M 20,254 L 14,260 L 10,264 L 10,266 L 16,260 L 20,256 L 20,254 z M 20,259 L 19,260 L 10,269 L 10,270 L 10,271 L 11,270 L 20,261 L 20,260 L 20,259 z M 20,264 L 14,270 L 10,274 L 10,276 L 16,270 L 20,266 L 20,264 z M 20,269 L 19,270 L 10,279 L 10,280 L 10,281 L 11,280 L 20,271 L 20,270 L 20,269 z M 20,274 L 14,280 L 10,284 L 10,286 L 16,280 L 20,276 L 20,274 z M 20,279 L 19,280 L 10,289 L 10,290 L 10,291 L 11,290 L 20,281 L 20,280 L 20,279 z M 20,284 L 14,290 L 10,294 L 10,296 L 16,290 L 20,286 L 20,284 z M 20,289 L 19,290 L 10,299 L 10,300 L 10,301 L 11,300 L 20,291 L 20,290 L 20,289 z M 20,294 L 14,300 L 10,304 L 10,306 L 16,300 L 20,296 L 20,294 z M 20,299 L 19,300 L 10,309 L 10,310 L 10,311 L 11,310 L 20,301 L 20,300 L 20,299 z M 20,304 L 14,310 L 10,314 L 10,316 L 16,310 L 20,306 L 20,304 z M 20,309 L 19,310 L 10,319 L 10,320 L 11,320 L 20,311 L 20,310 L 20,309 z M 20,314 L 14,320 L 16,320 L 20,316 L 20,314 z M 20,319 L 19,320 L 20,320 L 20,319 z"
       style="opacity:1;fill:#cccccc;fill-opacity:1;fill-rule:nonzero;stroke:none;stroke-width:0;stroke-linecap:butt;stroke-linejoin:round;marker:none;marker-start:none;marker-mid:none;marker-end:none;stroke-miterlimit:0;stroke-dasharray:none;stroke-dashoffset:0;stroke-opacity:1;visibility:visible;display:inline;overflow:visible;enable-background:accumulate" />
    <path
       style="opacity:1;fill:url(#linearGradient3189);fill-opacity:1;fill-rule:nonzero;stroke:none;stroke-width:0;stroke-linecap:butt;stroke-linejoin:round;marker:none;marker-start:none;marker-mid:none;marker-end:none;stroke-miterlimit:0;stroke-dasharray:none;stroke-dashoffset:0;stroke-opacity:1;visibility:visible;display:inline;overflow:visible;enable-background:accumulate;color:#000000"
       d="M 86.5 4.5 L 84.5 6.5 L 88 10 L 84.5 13.5 L 86.5 15.5 L 90 12 L 93.5 15.5 L 95.5 13.5 L 92 10 L 95.5 6.5 L 93.5 4.5 L 90 8 L 86.5 4.5 z "
       id="path2431" />
    <path
       id="path2436"
       d="M 86.5,24.5 L 84.5,26.5 L 88,30 L 84.5,33.5 L 86.5,35.5 L 90,32 L 93.5,35.5 L 95.5,33.5 L 92,30 L 95.5,26.5 L 93.5,24.5 L 90,28 L 86.5,24.5 z"
       style="opacity:1;fill:url(#linearGradient3197);fill-opacity:1;fill-rule:nonzero;stroke:none;stroke-width:0;stroke-linecap:butt;stroke-linejoin:round;marker:none;marker-start:none;marker-mid:none;marker-end:none;stroke-miterlimit:0;stroke-dasharray:none;stroke-dashoffset:0;stroke-opacity:1;visibility:visible;display:inline;overflow:visible;enable-background:accumulate;color:#000000" />
    <rect
       style="opacity:1;fill:url(#linearGradient3218);fill-opacity:1;fill-rule:nonzero;stroke:none;stroke-width:0;stroke-linecap:butt;stroke-linejoin:round;marker:none;marker-start:none;marker-mid:none;marker-end:none;stroke-miterlimit:0;stroke-dasharray:none;stroke-dashoffset:0;stroke-opacity:1;visibility:visible;display:inline;overflow:visible;enable-background:accumulate"
       id="rect2440"
       width="20"
       height="20"
       x="0"
       y="220" />
    <g
       id="g3237">
      <path
         style="opacity:1;fill:#c0c0c0;fill-opacity:1;fill-rule:nonzero;stroke:none;stroke-width:0;stroke-linecap:butt;stroke-linejoin:round;marker:none;marker-start:none;marker-mid:none;marker-end:none;stroke-miterlimit:0;stroke-dasharray:none;stroke-dashoffset:0;stroke-opacity:1;visibility:visible;display:inline;overflow:visible;enable-background:accumulate"
         d="M 3,190 C 1.338,190 -2.6111925e-18,191.338 0,193 L 0,207 C 0,208.662 1.338,210 3,210 L 30,210 L 35,218 L 40,210 L 67,210 C 68.662,210 70,208.662 70,207 L 70,193 C 70,191.338 68.662,190 67,190 L 3,190 z"
         id="path3222"
         sodipodi:nodetypes="cccccccccccc" />
      <rect
         rx="2"
         ry="2"
         y="191"
         x="1"
         height="18"
         width="68"
         id="rect3224"
         style="opacity:1;fill:url(#linearGradient3233);fill-opacity:1;fill-rule:nonzero;stroke:none;stroke-width:0;stroke-linecap:butt;stroke-linejoin:round;marker:none;marker-start:none;marker-mid:none;marker-end:none;stroke-miterlimit:0;stroke-dasharray:none;stroke-dashoffset:0;stroke-opacity:1;visibility:visible;display:inline;overflow:visible;enable-background:accumulate" />
      <path
         sodipodi:nodetypes="ccc"
         id="path3235"
         d="M 31,209 L 35,215.5 L 39,209"
         style="opacity:1;fill:#e2e2e2;fill-opacity:1;fill-rule:nonzero;stroke:none;stroke-width:0;stroke-linecap:butt;stroke-linejoin:round;marker:none;marker-start:none;marker-mid:none;marker-end:none;stroke-miterlimit:0;stroke-dasharray:none;stroke-dashoffset:0;stroke-opacity:1;visibility:visible;display:inline;overflow:visible;enable-background:accumulate" />
    </g>
    <path
       style="opacity:1;fill:url(#linearGradient3189);fill-opacity:1;fill-rule:nonzero;stroke:none;stroke-width:0;stroke-linecap:butt;stroke-linejoin:round;marker:none;marker-start:none;marker-mid:none;marker-end:none;stroke-miterlimit:0;stroke-dasharray:none;stroke-dashoffset:0;stroke-opacity:1;visibility:visible;display:inline;overflow:visible;enable-background:accumulate;color:#000000"
       d="M 110 6 C 105 6 103 10 103 10 C 103.13432 10.013576 105 14 110 14 C 115 14 117 10 117 10 C 117 10 115 6 110 6 z M 110 7 C 111.656 7 113 8.344 113 10 C 113 11.656 111.656 13 110 13 C 108.344 13 107 11.656 107 10 C 107 8.344 108.344 7 110 7 z "
       id="path2445" />
    <path
       id="path3220"
       d="M 110,26 C 105,26 103,30 103,30 C 103.13432,30.013576 105,34 110,34 C 115,34 117,30 117,30 C 117,30 115,26 110,26 z M 110,27 C 111.656,27 113,28.344 113,30 C 113,31.656 111.656,33 110,33 C 108.344,33 107,31.656 107,30 C 107,28.344 108.344,27 110,27 z"
       style="opacity:1;fill:url(#linearGradient3197);fill-opacity:1;fill-rule:nonzero;stroke:none;stroke-width:0;stroke-linecap:butt;stroke-linejoin:round;marker:none;marker-start:none;marker-mid:none;marker-end:none;stroke-miterlimit:0;stroke-dasharray:none;stroke-dashoffset:0;stroke-opacity:1;visibility:visible;display:inline;overflow:visible;enable-background:accumulate;color:#000000" />
    <path
       style="opacity:1;fill:url(#linearGradient2450);fill-opacity:1;fill-rule:nonzero;stroke:none;stroke-width:0;stroke-linecap:butt;stroke-linejoin:round;marker:none;marker-start:none;marker-mid:none;marker-end:none;stroke-miterlimit:0;stroke-dasharray:none;stroke-dashoffset:0;stroke-opacity:1;visibility:visible;display:inline;overflow:visible;enable-background:accumulate"
       d="M 130 4 L 132 6 L 126 12 L 124 10 L 124 16 L 130 16 L 128 14 L 134 8 L 136 10 L 136 4 L 130 4 z "
       id="path2446" />
    <path
       id="path2457"
       d="M 130,24 L 132,26 L 126,32 L 124,30 L 124,36 L 130,36 L 128,34 L 134,28 L 136,30 L 136,24 L 130,24 z"
       style="opacity:1;fill:url(#linearGradient3197);fill-opacity:1;fill-rule:nonzero;stroke:none;stroke-width:0;stroke-linecap:butt;stroke-linejoin:round;marker:none;marker-start:none;marker-mid:none;marker-end:none;stroke-miterlimit:0;stroke-dasharray:none;stroke-dashoffset:0;stroke-opacity:1;visibility:visible;display:inline;overflow:visible;enable-background:accumulate;color:#000000" />
    <path
       style="opacity:1;fill:url(#linearGradient2466);fill-opacity:1;fill-rule:nonzero;stroke:none;stroke-width:0;stroke-linecap:butt;stroke-linejoin:round;marker:none;marker-start:none;marker-mid:none;marker-end:none;stroke-miterlimit:0;stroke-dasharray:none;stroke-dashoffset:0;stroke-opacity:1;visibility:visible;display:inline;overflow:visible;enable-background:accumulate"
       d="M 168,6 L 173,10 L 168,14 L 168,14"
       id="path2448" />
    <path
       id="path2450"
       d="M 168,26 L 173,30 L 168,34 L 168,34"
       style="opacity:1;fill:url(#linearGradient2464);fill-opacity:1;fill-rule:nonzero;stroke:none;stroke-width:0;stroke-linecap:butt;stroke-linejoin:round;marker:none;marker-start:none;marker-mid:none;marker-end:none;stroke-miterlimit:0;stroke-dasharray:none;stroke-dashoffset:0;stroke-opacity:1;visibility:visible;display:inline;overflow:visible;enable-background:accumulate" />
    <path
       id="path2456"
       d="M 153,6 L 148,10 L 153,14 L 153,14"
       style="opacity:1;fill:url(#linearGradient2460);fill-opacity:1;fill-rule:nonzero;stroke:none;stroke-width:0;stroke-linecap:butt;stroke-linejoin:round;marker:none;marker-start:none;marker-mid:none;marker-end:none;stroke-miterlimit:0;stroke-dasharray:none;stroke-dashoffset:0;stroke-opacity:1;visibility:visible;display:inline;overflow:visible;enable-background:accumulate" />
    <path
       style="opacity:1;fill:url(#linearGradient2462);fill-opacity:1;fill-rule:nonzero;stroke:none;stroke-width:0;stroke-linecap:butt;stroke-linejoin:round;marker:none;marker-start:none;marker-mid:none;marker-end:none;stroke-miterlimit:0;stroke-dasharray:none;stroke-dashoffset:0;stroke-opacity:1;visibility:visible;display:inline;overflow:visible;enable-background:accumulate"
       d="M 153,26 L 148,30 L 153,34 L 153,34"
       id="path2458" />
    <path
       style="opacity:1;fill:url(#linearGradient2465);fill-opacity:1;fill-rule:nonzero;stroke:none;stroke-width:0;stroke-linecap:butt;stroke-linejoin:round;marker:none;marker-start:none;marker-mid:none;marker-end:none;stroke-miterlimit:0;stroke-dasharray:none;stroke-dashoffset:0;stroke-opacity:1;visibility:visible;display:inline;overflow:visible;enable-background:accumulate"
       d="M 189.5,5 C 189.223,5 189,5.223 189,5.5 L 189,9 L 185.5,9 C 185.223,9 185,9.223 185,9.5 L 185,10.5 C 185,10.777 185.223,11 185.5,11 L 189,11 L 189,14.5 C 189,14.777 189.223,15 189.5,15 L 190.5,15 C 190.777,15 191,14.777 191,14.5 L 191,11 L 194.5,11 C 194.777,11 195,10.777 195,10.5 L 195,9.5 C 195,9.223 194.777,9 194.5,9 L 191,9 L 191,5.5 C 191,5.223 190.777,5 190.5,5 L 189.5,5 z"
       id="rect2456"
       sodipodi:nodetypes="ccccccccccccccccccccc" />
    <path
       id="path2461"
       d="M 189.5,25 C 189.223,25 189,25.223 189,25.5 L 189,29 L 185.5,29 C 185.223,29 185,29.223 185,29.5 L 185,30.5 C 185,30.777 185.223,31 185.5,31 L 189,31 L 189,34.5 C 189,34.777 189.223,35 189.5,35 L 190.5,35 C 190.777,35 191,34.777 191,34.5 L 191,31 L 194.5,31 C 194.777,31 195,30.777 195,30.5 L 195,29.5 C 195,29.223 194.777,29 194.5,29 L 191,29 L 191,25.5 C 191,25.223 190.777,25 190.5,25 L 189.5,25 z"
       style="opacity:1;fill:url(#linearGradient2463);fill-opacity:1;fill-rule:nonzero;stroke:none;stroke-width:0;stroke-linecap:butt;stroke-linejoin:round;marker:none;marker-start:none;marker-mid:none;marker-end:none;stroke-miterlimit:0;stroke-dasharray:none;stroke-dashoffset:0;stroke-opacity:1;visibility:visible;display:inline;overflow:visible;enable-background:accumulate"
       sodipodi:nodetypes="ccccccccccccccccccccc" />
    <path
       style="opacity:1;fill:url(#linearGradient2465);fill-opacity:1;fill-rule:nonzero;stroke:none;stroke-width:0;stroke-linecap:butt;stroke-linejoin:round;marker:none;marker-start:none;marker-mid:none;marker-end:none;stroke-miterlimit:0;stroke-dasharray:none;stroke-dashoffset:0;stroke-opacity:1;visibility:visible;display:inline;overflow:visible;enable-background:accumulate;color:#000000"
       d="M 206 4 L 202 10 L 206 16 L 218 16 L 218 4 L 206 4 z M 210.71875 6 L 212.21875 6 L 215 13 L 213.46875 13 L 212.84375 11.40625 L 210.0625 11.40625 L 209.5 13 L 208 13 L 210.71875 6 z M 211.4375 7.625 L 210.5 10.21875 L 212.40625 10.21875 L 211.4375 7.625 z "
       id="path2460" />
    <path
       id="path3238"
       d="M 206,24 L 202,30 L 206,36 L 218,36 L 218,24 L 206,24 z M 210.71875,26 L 212.21875,26 L 215,33 L 213.46875,33 L 212.84375,31.40625 L 210.0625,31.40625 L 209.5,33 L 208,33 L 210.71875,26 z M 211.4375,27.625 L 210.5,30.21875 L 212.40625,30.21875 L 211.4375,27.625 z"
       style="opacity:1;fill:url(#linearGradient2463);fill-opacity:1;fill-rule:nonzero;stroke:none;stroke-width:0;stroke-linecap:butt;stroke-linejoin:round;marker:none;marker-start:none;marker-mid:none;marker-end:none;stroke-miterlimit:0;stroke-dasharray:none;stroke-dashoffset:0;stroke-opacity:1;visibility:visible;display:inline;overflow:visible;enable-background:accumulate;color:#000000" />
    <path
       style="opacity:1;fill:#7a7a7a;fill-opacity:1;fill-rule:nonzero;stroke:none;stroke-width:0;stroke-linecap:butt;stroke-linejoin:round;marker:none;marker-start:none;marker-mid:none;marker-end:none;stroke-miterlimit:0;stroke-dasharray:none;stroke-dashoffset:0;stroke-opacity:1;visibility:visible;display:inline;overflow:visible;enable-background:accumulate"
       d="M 225 4 L 224 5 L 224 10 L 230 10 L 230 4 L 225 4 z "
       id="rect3240" />
    <path
       style="opacity:1;fill:#5f5f5f;fill-opacity:1;fill-rule:nonzero;stroke:none;stroke-width:0;stroke-linecap:butt;stroke-linejoin:round;marker:none;marker-start:none;marker-mid:none;marker-end:none;stroke-miterlimit:0;stroke-dasharray:none;stroke-dashoffset:0;stroke-opacity:1;visibility:visible;display:inline;overflow:visible;enable-background:accumulate"
       d="M 224 10 L 224 15 L 225 16 L 230 16 L 230 10 L 224 10 z "
       id="rect3250" />
    <path
       id="path3260"
       d="M 236,10 L 236,5 L 235,4 L 230,4 L 230,10 L 236,10 z"
       style="opacity:1;fill:#5f5f5f;fill-opacity:1;fill-rule:nonzero;stroke:none;stroke-width:0;stroke-linecap:butt;stroke-linejoin:round;marker:none;marker-start:none;marker-mid:none;marker-end:none;stroke-miterlimit:0;stroke-dasharray:none;stroke-dashoffset:0;stroke-opacity:1;visibility:visible;display:inline;overflow:visible;enable-background:accumulate" />
    <path
       id="path3262"
       d="M 235,16 L 236,15 L 236,10 L 230,10 L 230,16 L 235,16 z"
       style="opacity:1;fill:#474747;fill-opacity:1;fill-rule:nonzero;stroke:none;stroke-width:0;stroke-linecap:butt;stroke-linejoin:round;marker:none;marker-start:none;marker-mid:none;marker-end:none;stroke-miterlimit:0;stroke-dasharray:none;stroke-dashoffset:0;stroke-opacity:1;visibility:visible;display:inline;overflow:visible;enable-background:accumulate" />
    <path
       id="path3264"
       d="M 225,24 L 224,25 L 224,30 L 230,30 L 230,24 L 225,24 z"
       style="opacity:1;fill:#ffffff;fill-opacity:1;fill-rule:nonzero;stroke:none;stroke-width:0;stroke-linecap:butt;stroke-linejoin:round;marker:none;marker-start:none;marker-mid:none;marker-end:none;stroke-miterlimit:0;stroke-dasharray:none;stroke-dashoffset:0;stroke-opacity:1;visibility:visible;display:inline;overflow:visible;enable-background:accumulate" />
    <path
       id="path3266"
       d="M 224,30 L 224,35 L 225,36 L 230,36 L 230,30 L 224,30 z"
       style="opacity:1;fill:#f0f0f0;fill-opacity:1;fill-rule:nonzero;stroke:none;stroke-width:0;stroke-linecap:butt;stroke-linejoin:round;marker:none;marker-start:none;marker-mid:none;marker-end:none;stroke-miterlimit:0;stroke-dasharray:none;stroke-dashoffset:0;stroke-opacity:1;visibility:visible;display:inline;overflow:visible;enable-background:accumulate" />
    <path
       style="opacity:1;fill:#f0f0f0;fill-opacity:1;fill-rule:nonzero;stroke:none;stroke-width:0;stroke-linecap:butt;stroke-linejoin:round;marker:none;marker-start:none;marker-mid:none;marker-end:none;stroke-miterlimit:0;stroke-dasharray:none;stroke-dashoffset:0;stroke-opacity:1;visibility:visible;display:inline;overflow:visible;enable-background:accumulate"
       d="M 236,30 L 236,25 L 235,24 L 230,24 L 230,30 L 236,30 z"
       id="path3268" />
    <path
       style="opacity:1;fill:#e3e3e3;fill-opacity:1;fill-rule:nonzero;stroke:none;stroke-width:0;stroke-linecap:butt;stroke-linejoin:round;marker:none;marker-start:none;marker-mid:none;marker-end:none;stroke-miterlimit:0;stroke-dasharray:none;stroke-dashoffset:0;stroke-opacity:1;visibility:visible;display:inline;overflow:visible;enable-background:accumulate"
       d="M 235,36 L 236,35 L 236,30 L 230,30 L 230,36 L 235,36 z"
       id="path3270" />
    <path
       id="path3290"
       d="M 244,24 C 242.892,24 242,24.892 242,26 L 242,34 C 242,35.108 242.892,36 244,36 L 256,36 C 257.108,36 258,35.108 258,34 L 258,26 C 258,24.892 257.108,24 256,24 L 244,24 z M 245.9375,27 L 247,27 L 247,33 L 245.6875,33 L 245.6875,28.6875 C 245.20924,29.078808 244.64907,29.375004 244,29.5625 L 244,28.5 C 244.34162,28.402179 244.72438,28.240494 245.125,27.96875 C 245.52562,27.694299 245.78843,27.364136 245.9375,27 z M 253.9375,27 L 255,27 L 255,33 L 253.6875,33 L 253.6875,28.6875 C 253.20923,29.078808 252.64907,29.375004 252,29.5625 L 252,28.5 C 252.34162,28.402179 252.72438,28.240494 253.125,27.96875 C 253.52562,27.694299 253.78843,27.364136 253.9375,27 z M 250,28 C 250.554,28 251,28.446 251,29 C 251,29.554 250.554,30 250,30 C 249.446,30 249,29.554 249,29 C 249,28.446 249.446,28 250,28 z M 250,31 C 250.554,31 251,31.446 251,32 C 251,32.554 250.554,33 250,33 C 249.446,33 249,32.554 249,32 C 249,31.446 249.446,31 250,31 z"
       style="opacity:1;fill:url(#linearGradient2463);fill-opacity:1;fill-rule:nonzero;stroke:none;stroke-width:0;stroke-linecap:butt;stroke-linejoin:round;marker:none;marker-start:none;marker-mid:none;marker-end:none;stroke-miterlimit:0;stroke-dasharray:none;stroke-dashoffset:0;stroke-opacity:1;visibility:visible;display:inline;overflow:visible;enable-background:accumulate;color:#000000" />
    <path
       style="opacity:1;fill:url(#linearGradient3287);fill-opacity:1;fill-rule:nonzero;stroke:none;stroke-width:0;stroke-linecap:butt;stroke-linejoin:round;marker:none;marker-start:none;marker-mid:none;marker-end:none;stroke-miterlimit:0;stroke-dasharray:none;stroke-dashoffset:0;stroke-opacity:1;visibility:visible;display:inline;overflow:visible;enable-background:accumulate;color:#000000"
       d="M 268.5 4 C 265.464 4 263 6.464 263 9.5 C 263 12.451926 265.33029 14.868722 268.25 15 C 267.46519 14.049155 267 12.82825 267 11.5 C 267 8.464 269.464 6 272.5 6 C 272.58407 6 272.66684 5.9962611 272.75 6 C 271.74095 4.7774854 270.20775 4 268.5 4 z M 272.5 7 C 270.016 7 268 9.016 268 11.5 C 268 13.984 270.016 16 272.5 16 C 274.984 16 277 13.984 277 11.5 C 277 9.016 274.984 7 272.5 7 z "
       id="path2473" />
    <path
       id="path2498"
       d="M 268.5,24 C 265.464,24 263,26.464 263,29.5 C 263,32.451926 265.33029,34.868722 268.25,35 C 267.46519,34.049155 267,32.82825 267,31.5 C 267,28.464 269.464,26 272.5,26 C 272.58407,26 272.66684,25.996261 272.75,26 C 271.74095,24.777485 270.20775,24 268.5,24 z M 272.5,27 C 270.016,27 268,29.016 268,31.5 C 268,33.984 270.016,36 272.5,36 C 274.984,36 277,33.984 277,31.5 C 277,29.016 274.984,27 272.5,27 z"
       style="opacity:1;fill:url(#linearGradient2463);fill-opacity:1;fill-rule:nonzero;stroke:none;stroke-width:0;stroke-linecap:butt;stroke-linejoin:round;marker:none;marker-start:none;marker-mid:none;marker-end:none;stroke-miterlimit:0;stroke-dasharray:none;stroke-dashoffset:0;stroke-opacity:1;visibility:visible;display:inline;overflow:visible;enable-background:accumulate;color:#000000" />
  </g>
</svg>
