<?xml version="1.0" encoding="UTF-8" standalone="no"?>
<!-- Created with Inkscape (http://www.inkscape.org/) -->

<svg
   xmlns:dc="http://purl.org/dc/elements/1.1/"
   xmlns:cc="http://creativecommons.org/ns#"
   xmlns:rdf="http://www.w3.org/1999/02/22-rdf-syntax-ns#"
   xmlns:svg="http://www.w3.org/2000/svg"
   xmlns="http://www.w3.org/2000/svg"
   xmlns:xlink="http://www.w3.org/1999/xlink"
   xmlns:sodipodi="http://sodipodi.sourceforge.net/DTD/sodipodi-0.dtd"
   xmlns:inkscape="http://www.inkscape.org/namespaces/inkscape"
   width="400"
   height="480"
   id="svg2"
   sodipodi:version="0.32"
   inkscape:version="0.48.0 r9654"
   version="1.0"
   sodipodi:docname="sprite.svg"
   inkscape:output_extension="org.inkscape.output.svg.inkscape"
   inkscape:export-filename="/home/devseed/tilemill/client/images/sprite.png"
   inkscape:export-xdpi="90"
   inkscape:export-ydpi="90">
  <defs
     id="defs4">
    <linearGradient
       inkscape:collect="always"
       id="linearGradient3212">
      <stop
         style="stop-color:#000000;stop-opacity:0.1882353"
         offset="0"
         id="stop3214" />
      <stop
         style="stop-color:#000000;stop-opacity:0;"
         offset="1"
         id="stop3216" />
    </linearGradient>
    <linearGradient
       inkscape:collect="always"
       id="linearGradient3234">
      <stop
         style="stop-color:#ffffff;stop-opacity:1"
         offset="0"
         id="stop3236" />
      <stop
         style="stop-color:#f4f4f4;stop-opacity:1"
         offset="1"
         id="stop3238" />
    </linearGradient>
    <linearGradient
       inkscape:collect="always"
       id="linearGradient3224">
      <stop
         style="stop-color:#ffffff;stop-opacity:1;"
         offset="0"
         id="stop3226" />
      <stop
         style="stop-color:#ffffff;stop-opacity:0;"
         offset="1"
         id="stop3228" />
    </linearGradient>
    <linearGradient
       inkscape:collect="always"
       id="linearGradient3186">
      <stop
         style="stop-color:#cccccc;stop-opacity:1"
         offset="0"
         id="stop3188" />
      <stop
         style="stop-color:#404040;stop-opacity:0"
         offset="1"
         id="stop3190" />
    </linearGradient>
    <linearGradient
       id="linearGradient3176">
      <stop
         style="stop-color:#ffffff;stop-opacity:0.1254902"
         offset="0"
         id="stop3178" />
      <stop
         style="stop-color:#ffffff;stop-opacity:0"
         offset="1"
         id="stop3180" />
    </linearGradient>
    <linearGradient
       id="linearGradient3203"
       inkscape:collect="always">
      <stop
         id="stop3205"
         offset="0"
         style="stop-color:#ffffff;stop-opacity:1" />
      <stop
         id="stop3207"
         offset="1"
         style="stop-color:#e0e0e0;stop-opacity:1" />
    </linearGradient>
    <linearGradient
       inkscape:collect="always"
       id="linearGradient3156">
      <stop
         style="stop-color:#808080;stop-opacity:1;"
         offset="0"
         id="stop3158" />
      <stop
         style="stop-color:#404040;stop-opacity:1"
         offset="1"
         id="stop3160" />
    </linearGradient>
    <linearGradient
       inkscape:collect="always"
       id="linearGradient3171">
      <stop
         style="stop-color:#808080;stop-opacity:1;"
         offset="0"
         id="stop3173" />
      <stop
         style="stop-color:#6a6a6a;stop-opacity:1"
         offset="1"
         id="stop3175" />
    </linearGradient>
    <inkscape:perspective
       sodipodi:type="inkscape:persp3d"
       inkscape:vp_x="0 : 526.18109 : 1"
       inkscape:vp_y="0 : 1000 : 0"
       inkscape:vp_z="744.09448 : 526.18109 : 1"
       inkscape:persp3d-origin="372.04724 : 350.78739 : 1"
       id="perspective10" />
    <linearGradient
       inkscape:collect="always"
       xlink:href="#linearGradient3171"
       id="linearGradient3177"
       x1="0"
       y1="20"
       x2="0"
       y2="40"
       gradientUnits="userSpaceOnUse" />
    <linearGradient
       inkscape:collect="always"
       xlink:href="#linearGradient3156"
       id="linearGradient3162"
       x1="4"
       y1="3"
       x2="4"
       y2="16"
       gradientUnits="userSpaceOnUse"
       gradientTransform="translate(0,-80)" />
    <linearGradient
       inkscape:collect="always"
       xlink:href="#linearGradient3156"
       id="linearGradient3170"
       x1="37"
       y1="3"
       x2="37"
       y2="17"
       gradientUnits="userSpaceOnUse"
       gradientTransform="translate(0,-80)" />
    <linearGradient
       inkscape:collect="always"
       xlink:href="#linearGradient3156"
       id="linearGradient3189"
       x1="53"
       y1="3"
       x2="53"
       y2="17"
       gradientUnits="userSpaceOnUse"
       gradientTransform="translate(5,-80)" />
    <linearGradient
       inkscape:collect="always"
       xlink:href="#linearGradient3203"
       id="linearGradient3197"
       gradientUnits="userSpaceOnUse"
       x1="37"
       y1="3"
       x2="37"
       y2="17"
       gradientTransform="translate(0,-60)" />
    <linearGradient
       inkscape:collect="always"
       xlink:href="#linearGradient3203"
       id="linearGradient3199"
       gradientUnits="userSpaceOnUse"
       x1="4"
       y1="3"
       x2="4"
       y2="16"
       gradientTransform="translate(0,-60)" />
    <linearGradient
       inkscape:collect="always"
       xlink:href="#linearGradient3203"
       id="linearGradient3201"
       gradientUnits="userSpaceOnUse"
       gradientTransform="translate(5,-60)"
       x1="53"
       y1="3"
       x2="53"
       y2="17" />
    <linearGradient
       inkscape:collect="always"
       xlink:href="#linearGradient3176"
       id="linearGradient3182"
       x1="0"
       y1="360"
       x2="0"
       y2="400"
       gradientUnits="userSpaceOnUse"
       gradientTransform="translate(0,48)" />
    <linearGradient
       inkscape:collect="always"
       xlink:href="#linearGradient3176"
       id="linearGradient3214"
       gradientUnits="userSpaceOnUse"
       x1="0"
       y1="360"
       x2="0"
       y2="400" />
    <linearGradient
       inkscape:collect="always"
       xlink:href="#linearGradient3186"
       id="linearGradient3216"
       gradientUnits="userSpaceOnUse"
       x1="0"
       y1="360"
       x2="0"
       y2="400" />
    <linearGradient
       inkscape:collect="always"
       xlink:href="#linearGradient3234"
       id="linearGradient3219"
       gradientUnits="userSpaceOnUse"
       x1="0"
       y1="360"
       x2="0"
       y2="400"
       gradientTransform="translate(0,-120)" />
    <linearGradient
       inkscape:collect="always"
       xlink:href="#linearGradient3224"
       id="linearGradient3230"
       x1="0"
       y1="320"
       x2="0"
       y2="360"
       gradientUnits="userSpaceOnUse" />
    <linearGradient
       inkscape:collect="always"
       xlink:href="#linearGradient3224"
       id="linearGradient3232"
       gradientUnits="userSpaceOnUse"
       x1="0"
       y1="320"
       x2="0"
       y2="360"
       gradientTransform="translate(31.943819,22.548578)" />
    <linearGradient
       inkscape:collect="always"
       xlink:href="#linearGradient3212"
       id="linearGradient3218"
       x1="20"
       y1="240"
       x2="5"
       y2="225"
       gradientUnits="userSpaceOnUse"
       gradientTransform="translate(0,-80)" />
    <linearGradient
       inkscape:collect="always"
       xlink:href="#linearGradient3203"
       id="linearGradient3220"
       x1="70"
       y1="190"
       x2="70"
       y2="218"
       gradientUnits="userSpaceOnUse" />
    <linearGradient
       inkscape:collect="always"
       xlink:href="#linearGradient3203"
       id="linearGradient3233"
       x1="70"
       y1="190"
       x2="70"
       y2="210"
       gradientUnits="userSpaceOnUse" />
    <linearGradient
       inkscape:collect="always"
       xlink:href="#linearGradient3156"
       id="linearGradient2450"
       gradientUnits="userSpaceOnUse"
       gradientTransform="matrix(-1,0,0,1,215,-80)"
       x1="53"
       y1="3"
       x2="53"
       y2="17" />
    <linearGradient
       inkscape:collect="always"
       xlink:href="#linearGradient3156"
       id="linearGradient2460"
       gradientUnits="userSpaceOnUse"
       gradientTransform="translate(86,-80)"
       x1="53"
       y1="3"
       x2="53"
       y2="17" />
    <linearGradient
       inkscape:collect="always"
       xlink:href="#linearGradient3203"
       id="linearGradient2462"
       gradientUnits="userSpaceOnUse"
       gradientTransform="matrix(-1,0,0,1,301,-60)"
       x1="37"
       y1="3"
       x2="37"
       y2="17" />
    <linearGradient
       inkscape:collect="always"
       xlink:href="#linearGradient3203"
       id="linearGradient2464"
       gradientUnits="userSpaceOnUse"
       gradientTransform="translate(20,-60)"
       x1="37"
       y1="3"
       x2="37"
       y2="17" />
    <linearGradient
       inkscape:collect="always"
       xlink:href="#linearGradient3156"
       id="linearGradient2466"
       gradientUnits="userSpaceOnUse"
       gradientTransform="matrix(-1,0,0,1,235,-80)"
       x1="53"
       y1="3"
       x2="53"
       y2="17" />
    <linearGradient
       inkscape:collect="always"
       xlink:href="#linearGradient3203"
       id="linearGradient2463"
       gradientUnits="userSpaceOnUse"
       gradientTransform="translate(25,-60)"
       x1="37"
       y1="3"
       x2="37"
       y2="17" />
    <linearGradient
       inkscape:collect="always"
       xlink:href="#linearGradient3156"
       id="linearGradient2465"
       gradientUnits="userSpaceOnUse"
       gradientTransform="matrix(-1,0,0,1,240,-80)"
       x1="53"
       y1="3"
       x2="53"
       y2="17" />
    <linearGradient
       inkscape:collect="always"
       xlink:href="#linearGradient3156"
       id="linearGradient3287"
       gradientUnits="userSpaceOnUse"
       gradientTransform="matrix(-1,0,0,1,240,-80)"
       x1="53"
       y1="3"
       x2="53"
       y2="17" />
    <linearGradient
       inkscape:collect="always"
       xlink:href="#linearGradient3156"
       id="linearGradient2484"
       gradientUnits="userSpaceOnUse"
       gradientTransform="matrix(-1,0,0,1,240,0)"
       x1="53"
       y1="3"
       x2="53"
       y2="17" />
    <linearGradient
       inkscape:collect="always"
       xlink:href="#linearGradient3156"
       id="linearGradient2486"
       gradientUnits="userSpaceOnUse"
       gradientTransform="matrix(-1,0,0,1,240,0)"
       x1="53"
       y1="3"
       x2="53"
       y2="17" />
    <linearGradient
       inkscape:collect="always"
       xlink:href="#linearGradient3156"
       id="linearGradient2488"
       gradientUnits="userSpaceOnUse"
       gradientTransform="matrix(-1.375,0,0,1.375,230,-1.5)"
       x1="53"
       y1="3"
       x2="53"
       y2="17" />
    <linearGradient
       inkscape:collect="always"
       xlink:href="#linearGradient3156"
       id="linearGradient2492"
       gradientUnits="userSpaceOnUse"
       gradientTransform="matrix(-1,0,0,1,240,0)"
       x1="53"
       y1="3"
       x2="53"
       y2="17" />
    <linearGradient
       inkscape:collect="always"
       xlink:href="#linearGradient3156"
       id="linearGradient2495"
       gradientUnits="userSpaceOnUse"
       gradientTransform="matrix(-1.375,0,0,1.375,230,-1.5)"
       x1="53"
       y1="3"
       x2="53"
       y2="17" />
    <linearGradient
       inkscape:collect="always"
       xlink:href="#linearGradient3156"
       id="linearGradient3876"
       gradientUnits="userSpaceOnUse"
       gradientTransform="matrix(-1,0,0,1,240,-80)"
       x1="53"
       y1="3"
       x2="53"
       y2="17" />
    <linearGradient
       inkscape:collect="always"
       xlink:href="#linearGradient3156"
       id="linearGradient3878"
       gradientUnits="userSpaceOnUse"
       gradientTransform="translate(5,-80)"
       x1="53"
       y1="3"
       x2="53"
       y2="17" />
    <linearGradient
       inkscape:collect="always"
       xlink:href="#linearGradient3203"
       id="linearGradient3880"
       gradientUnits="userSpaceOnUse"
       gradientTransform="translate(0,-60)"
       x1="37"
       y1="3"
       x2="37"
       y2="17" />
    <linearGradient
       inkscape:collect="always"
       xlink:href="#linearGradient3156"
       id="linearGradient3882"
       gradientUnits="userSpaceOnUse"
       gradientTransform="translate(5,-80)"
       x1="53"
       y1="3"
       x2="53"
       y2="17" />
    <linearGradient
       inkscape:collect="always"
       xlink:href="#linearGradient3203"
       id="linearGradient3884"
       gradientUnits="userSpaceOnUse"
       gradientTransform="translate(0,-60)"
       x1="37"
       y1="3"
       x2="37"
       y2="17" />
    <linearGradient
       inkscape:collect="always"
       xlink:href="#linearGradient3156"
       id="linearGradient3886"
       gradientUnits="userSpaceOnUse"
       gradientTransform="translate(5,-80)"
       x1="53"
       y1="3"
       x2="53"
       y2="17" />
    <linearGradient
       inkscape:collect="always"
       xlink:href="#linearGradient3203"
       id="linearGradient3888"
       gradientUnits="userSpaceOnUse"
       gradientTransform="translate(0,-60)"
       x1="37"
       y1="3"
       x2="37"
       y2="17" />
    <linearGradient
       inkscape:collect="always"
       xlink:href="#linearGradient3203"
       id="linearGradient3890"
       gradientUnits="userSpaceOnUse"
       gradientTransform="translate(0,-60)"
       x1="37"
       y1="3"
       x2="37"
       y2="17" />
    <linearGradient
       inkscape:collect="always"
       xlink:href="#linearGradient3156"
       id="linearGradient3892"
       gradientUnits="userSpaceOnUse"
       gradientTransform="matrix(-1,0,0,1,240,-80)"
       x1="53"
       y1="3"
       x2="53"
       y2="17" />
    <linearGradient
       inkscape:collect="always"
       xlink:href="#linearGradient3203"
       id="linearGradient3894"
       gradientUnits="userSpaceOnUse"
       gradientTransform="translate(25,-60)"
       x1="37"
       y1="3"
       x2="37"
       y2="17" />
    <linearGradient
       inkscape:collect="always"
       xlink:href="#linearGradient3203"
       id="linearGradient3896"
       gradientUnits="userSpaceOnUse"
       gradientTransform="translate(25,-60)"
       x1="37"
       y1="3"
       x2="37"
       y2="17" />
    <linearGradient
       inkscape:collect="always"
       xlink:href="#linearGradient3203"
       id="linearGradient3898"
       gradientUnits="userSpaceOnUse"
       gradientTransform="translate(25,-60)"
       x1="37"
       y1="3"
       x2="37"
       y2="17" />
    <linearGradient
       inkscape:collect="always"
       xlink:href="#linearGradient3176"
       id="linearGradient3922"
       gradientUnits="userSpaceOnUse"
       gradientTransform="translate(0,48)"
       x1="0"
       y1="360"
       x2="0"
       y2="400" />
  </defs>
  <sodipodi:namedview
     id="base"
     pagecolor="#ffffff"
     bordercolor="#666666"
     borderopacity="1.0"
     gridtolerance="10000"
     guidetolerance="10"
     objecttolerance="10"
     inkscape:pageopacity="0.0"
     inkscape:pageshadow="2"
     inkscape:zoom="1.5625"
     inkscape:cx="3.0616378"
     inkscape:cy="133.37886"
     inkscape:document-units="px"
     inkscape:current-layer="layer1"
     showgrid="true"
     inkscape:snap-bbox="true"
     showguides="true"
     inkscape:guide-bbox="true">
    <inkscape:grid
       type="xygrid"
       id="grid2383"
       visible="true"
       enabled="true"
       empspacing="5"
       snapvisiblegridlinesonly="true" />
  </sodipodi:namedview>
  <metadata
     id="metadata7">
    <rdf:RDF>
      <cc:Work
         rdf:about="">
        <dc:format>image/svg+xml</dc:format>
        <dc:type
           rdf:resource="http://purl.org/dc/dcmitype/StillImage" />
        <dc:title></dc:title>
      </cc:Work>
    </rdf:RDF>
  </metadata>
  <g
     inkscape:label="Layer 1"
     inkscape:groupmode="layer"
     id="layer1"
     transform="translate(0,80)">
    <path
       style="fill:url(#linearGradient3876);fill-opacity:1;fill-rule:nonzero;stroke:none;stroke-width:0;marker:none;visibility:visible;display:inline;overflow:visible;enable-background:accumulate"
       d="m 244,-76 c -1.108,0 -2,0.892 -2,2 l 0,8 c 0,1.108 0.892,2 2,2 l 12,0 c 1.108,0 2,-0.892 2,-2 l 0,-8 c 0,-1.108 -0.892,-2 -2,-2 l -12,0 z m 1.9375,3 1.0625,0 0,6 -1.3125,0 0,-4.3125 c -0.47826,0.391308 -1.03843,0.687504 -1.6875,0.875 l 0,-1.0625 c 0.34162,-0.09782 0.72438,-0.259506 1.125,-0.53125 0.40062,-0.274451 0.66343,-0.604614 0.8125,-0.96875 z m 8,0 1.0625,0 0,6 -1.3125,0 0,-4.3125 c -0.47827,0.391308 -1.03843,0.687504 -1.6875,0.875 l 0,-1.0625 c 0.34162,-0.09782 0.72438,-0.259506 1.125,-0.53125 0.40062,-0.274451 0.66343,-0.604614 0.8125,-0.96875 z M 250,-72 c 0.554,0 1,0.446 1,1 0,0.554 -0.446,1 -1,1 -0.554,0 -1,-0.446 -1,-1 0,-0.554 0.446,-1 1,-1 z m 0,3 c 0.554,0 1,0.446 1,1 0,0.554 -0.446,1 -1,1 -0.554,0 -1,-0.446 -1,-1 0,-0.554 0.446,-1 1,-1 z"
       id="rect3276"
       inkscape:connector-curvature="0" />
    <rect
       style="fill:url(#linearGradient3219);fill-opacity:1;fill-rule:nonzero;stroke:none;stroke-width:0;marker:none;visibility:visible;display:inline;overflow:visible;enable-background:accumulate"
       id="rect3210"
       width="400"
       height="40"
       x="0"
       y="240" />
    <path
       style="fill:url(#linearGradient3170);fill-opacity:1;fill-rule:nonzero;stroke:none;stroke-width:0;marker:none;visibility:visible;display:inline;overflow:visible;enable-background:accumulate"
       d="m 28.5,-76 c -2.484,0 -4.5,2.016 -4.5,4.5 0,2.484 2.016,4.5 4.5,4.5 0.85669,0 1.630644,-0.271418 2.3125,-0.6875 L 34.5,-64 36,-65.5 32.3125,-69.1875 C 32.728582,-69.869356 33,-70.64331 33,-71.5 33,-73.984 30.984,-76 28.5,-76 z m 0,2 c 1.38,0 2.5,1.12 2.5,2.5 0,1.38 -1.12,2.5 -2.5,2.5 -1.380001,0 -2.5,-1.12 -2.5,-2.5 0,-1.380001 1.12,-2.5 2.5,-2.5 z"
       id="path2385"
       inkscape:connector-curvature="0" />
    <path
       style="fill:url(#linearGradient3162);fill-opacity:1;fill-rule:nonzero;stroke:none;stroke-width:0;marker:none;visibility:visible;display:inline;overflow:visible;enable-background:accumulate"
       d="m 14.5,-77 -1,1 2.5,2.5 1,-1 0,-1.5 -1,-1 -1.5,0 z m -1.5,1.5 -7,7 2.5,2.5 7,-7 -2.5,-2.5 z m -8,8.5 -1,3 3,-1 -2,-2 z"
       id="path3163"
       inkscape:connector-curvature="0" />
    <path
       style="fill:url(#linearGradient3878);fill-opacity:1;fill-rule:nonzero;stroke:none;stroke-width:0;marker:none;visibility:visible;display:inline;overflow:visible;enable-background:accumulate"
       d="m 54.75,-78 c -1.016327,0 -1.87741,0.667918 -2.15625,1.59375 L 52,-77 l -1.5,1.5 1,1 -4.5,4.5 0,1 -1,1 1,1 1,-1 1,0 4.5,-4.5 1,1 1.5,-1.5 -0.59375,-0.59375 C 56.332082,-73.87259 57,-74.733673 57,-75.75 57,-76.992 55.992,-78 54.75,-78 z m -9.25,10.5 -1.125,3.03125 C 44.148541,-64.206009 44,-63.873818 44,-63.5 c 0,0.828 0.672,1.5 1.5,1.5 0.828,0 1.5,-0.672 1.5,-1.5 0,-0.373818 -0.148541,-0.706009 -0.375,-0.96875 L 45.5,-67.5 z"
       id="path3172"
       inkscape:connector-curvature="0" />
    <path
       id="path3191"
       d="m 28.5,-56 c -2.484,0 -4.5,2.016 -4.5,4.5 0,2.484 2.016,4.5 4.5,4.5 0.85669,0 1.630644,-0.271418 2.3125,-0.6875 L 34.5,-44 36,-45.5 32.3125,-49.1875 C 32.728582,-49.869356 33,-50.64331 33,-51.5 33,-53.984 30.984,-56 28.5,-56 z m 0,2 c 1.38,0 2.5,1.12 2.5,2.5 0,1.38 -1.12,2.5 -2.5,2.5 -1.380001,0 -2.5,-1.12 -2.5,-2.5 0,-1.380001 1.12,-2.5 2.5,-2.5 z"
       style="fill:url(#linearGradient3880);fill-opacity:1;fill-rule:nonzero;stroke:none;stroke-width:0;marker:none;visibility:visible;display:inline;overflow:visible;enable-background:accumulate"
       inkscape:connector-curvature="0" />
    <path
       id="path3193"
       d="m 14.5,-57 -1,1 2.5,2.5 1,-1 0,-1.5 -1,-1 -1.5,0 z m -1.5,1.5 -7,7 2.5,2.5 7,-7 -2.5,-2.5 z m -8,8.5 -1,3 3,-1 -2,-2 z"
       style="fill:url(#linearGradient3199);fill-opacity:1;fill-rule:nonzero;stroke:none;stroke-width:0;marker:none;visibility:visible;display:inline;overflow:visible;enable-background:accumulate"
       inkscape:connector-curvature="0" />
    <path
       id="path3195"
       d="m 54.75,-58 c -1.016327,0 -1.87741,0.667918 -2.15625,1.59375 L 52,-57 l -1.5,1.5 1,1 -4.5,4.5 0,1 -1,1 1,1 1,-1 1,0 4.5,-4.5 1,1 1.5,-1.5 -0.59375,-0.59375 C 56.332082,-53.87259 57,-54.733673 57,-55.75 57,-56.992 55.992,-58 54.75,-58 z m -9.25,10.5 -1.125,3.03125 C 44.148541,-44.206009 44,-43.873818 44,-43.5 c 0,0.828 0.672,1.5 1.5,1.5 0.828,0 1.5,-0.672 1.5,-1.5 0,-0.373818 -0.148541,-0.706009 -0.375,-0.96875 L 45.5,-47.5 z"
       style="fill:url(#linearGradient3201);fill-opacity:1;fill-rule:nonzero;stroke:none;stroke-width:0;marker:none;visibility:visible;display:inline;overflow:visible;enable-background:accumulate"
       inkscape:connector-curvature="0" />
    <path
       style="color:#000000;fill:url(#linearGradient3882);fill-opacity:1;fill-rule:nonzero;stroke:none;stroke-width:0;marker:none;visibility:visible;display:inline;overflow:visible;enable-background:accumulate"
       d="m 68,-77 c -1.104,0 -2,0.896 -2,2 l 0,1 -1,0 -1,1 0,1 11,0 0,-1 -1,-1 -1,0 0,-1 c 0,-1.104 -0.896,-2 -2,-2 l -3,0 z m 0,1.5 3,0 0,1.5 -3,0 0,-1.5 z m -3,4.5 0,7 1,1 7,0 1,-1 0,-7 -1,0 -1,5 0,-5 -2,0 -0.5,5 -0.5,-5 -2,0 0,5 -1,-5 -1,0 z"
       id="rect2439"
       sodipodi:nodetypes="cccccccccccccccccccccccccccccccccc"
       inkscape:connector-curvature="0" />
    <path
       sodipodi:nodetypes="cccccccccccccccccccccccccccccccccc"
       id="path3259"
       d="m 68,-57 c -1.104,0 -2,0.896 -2,2 l 0,1 -1,0 -1,1 0,1 11,0 0,-1 -1,-1 -1,0 0,-1 c 0,-1.104 -0.896,-2 -2,-2 l -3,0 z m 0,1.5 3,0 0,1.5 -3,0 0,-1.5 z m -3,4.5 0,7 1,1 7,0 1,-1 0,-7 -1,0 -1,5 0,-5 -2,0 -0.5,5 -0.5,-5 -2,0 0,5 -1,-5 -1,0 z"
       style="color:#000000;fill:url(#linearGradient3884);fill-opacity:1;fill-rule:nonzero;stroke:none;stroke-width:0;marker:none;visibility:visible;display:inline;overflow:visible;enable-background:accumulate"
       inkscape:connector-curvature="0" />
    <g
       id="g3194"
       transform="matrix(1,0,0,1.25,0,-230)">
      <rect
         style="fill:#666666;fill-opacity:1;fill-rule:nonzero;stroke:none;stroke-width:0;marker:none;visibility:visible;display:inline;overflow:visible;enable-background:accumulate"
         id="rect3971"
         width="400"
         height="40"
         x="0"
         y="408" />
      <rect
         y="408"
         x="0"
         height="40"
         width="400"
         id="rect2404"
         style="fill:url(#linearGradient3182);fill-opacity:1;fill-rule:nonzero;stroke:none;stroke-width:0;marker:none;visibility:visible;display:inline;overflow:visible;enable-background:accumulate" />
    </g>
    <rect
       y="279"
       x="0"
       height="1"
       width="400"
       id="rect3212"
       style="fill:#cccccc;fill-opacity:1;fill-rule:nonzero;stroke:none;stroke-width:0;marker:none;visibility:visible;display:inline;overflow:visible;enable-background:accumulate" />
    <path
       style="fill:#cccccc;fill-opacity:1;fill-rule:nonzero;stroke:none;stroke-width:0;marker:none;visibility:visible;display:inline;overflow:visible;enable-background:accumulate"
       d="m 0,160 0,1 1,-1 -1,0 z m 4,0 -4,4 0,2 6,-6 -2,0 z m 5,0 -9,9 0,1 0,1 1,-1 9,-9 0,-1 -1,0 z m 1,4 -6,6 -4,4 0,2 6,-6 4,-4 0,-2 z m 0,5 -1,1 -9,9 0,1 0,1 1,-1 9,-9 0,-1 0,-1 z m 0,5 -6,6 -4,4 0,2 6,-6 4,-4 0,-2 z m 0,5 -1,1 -9,9 0,1 0,1 1,-1 9,-9 0,-1 0,-1 z m 0,5 -6,6 -4,4 0,2 6,-6 4,-4 0,-2 z m 0,5 -1,1 -9,9 0,1 0,1 1,-1 9,-9 0,-1 0,-1 z m 0,5 -6,6 -4,4 0,2 6,-6 4,-4 0,-2 z m 0,5 -1,1 -9,9 0,1 0,1 1,-1 9,-9 0,-1 0,-1 z m 0,5 -6,6 -4,4 0,2 6,-6 4,-4 0,-2 z m 0,5 -1,1 -9,9 0,1 0,1 1,-1 9,-9 0,-1 0,-1 z m 0,5 -6,6 -4,4 0,2 6,-6 4,-4 0,-2 z m 0,5 -1,1 -9,9 0,1 0,1 1,-1 9,-9 0,-1 0,-1 z m 0,5 -6,6 -4,4 0,2 6,-6 4,-4 0,-2 z m 0,5 -1,1 -9,9 0,1 1,0 9,-9 0,-1 0,-1 z m 0,5 -6,6 2,0 4,-4 0,-2 z m 0,5 -1,1 1,0 0,-1 z"
       id="path3319"
       inkscape:connector-curvature="0" />
    <path
       id="path3410"
       d="m 10,160 0,1 1,-1 -1,0 z m 4,0 -4,4 0,2 6,-6 -2,0 z m 5,0 -9,9 0,1 0,1 1,-1 9,-9 0,-1 -1,0 z m 1,4 -6,6 -4,4 0,2 6,-6 4,-4 0,-2 z m 0,5 -1,1 -9,9 0,1 0,1 1,-1 9,-9 0,-1 0,-1 z m 0,5 -6,6 -4,4 0,2 6,-6 4,-4 0,-2 z m 0,5 -1,1 -9,9 0,1 0,1 1,-1 9,-9 0,-1 0,-1 z m 0,5 -6,6 -4,4 0,2 6,-6 4,-4 0,-2 z m 0,5 -1,1 -9,9 0,1 0,1 1,-1 9,-9 0,-1 0,-1 z m 0,5 -6,6 -4,4 0,2 6,-6 4,-4 0,-2 z m 0,5 -1,1 -9,9 0,1 0,1 1,-1 9,-9 0,-1 0,-1 z m 0,5 -6,6 -4,4 0,2 6,-6 4,-4 0,-2 z m 0,5 -1,1 -9,9 0,1 0,1 1,-1 9,-9 0,-1 0,-1 z m 0,5 -6,6 -4,4 0,2 6,-6 4,-4 0,-2 z m 0,5 -1,1 -9,9 0,1 0,1 1,-1 9,-9 0,-1 0,-1 z m 0,5 -6,6 -4,4 0,2 6,-6 4,-4 0,-2 z m 0,5 -1,1 -9,9 0,1 1,0 9,-9 0,-1 0,-1 z m 0,5 -6,6 2,0 4,-4 0,-2 z m 0,5 -1,1 1,0 0,-1 z"
       style="fill:#cccccc;fill-opacity:1;fill-rule:nonzero;stroke:none;stroke-width:0;marker:none;visibility:visible;display:inline;overflow:visible;enable-background:accumulate"
       inkscape:connector-curvature="0" />
    <path
       style="color:#000000;fill:url(#linearGradient3886);fill-opacity:1;fill-rule:nonzero;stroke:none;stroke-width:0;marker:none;visibility:visible;display:inline;overflow:visible;enable-background:accumulate"
       d="m 86.5,-75.5 -2,2 3.5,3.5 -3.5,3.5 2,2 3.5,-3.5 3.5,3.5 2,-2 -3.5,-3.5 3.5,-3.5 -2,-2 -3.5,3.5 -3.5,-3.5 z"
       id="path2431"
       inkscape:connector-curvature="0" />
    <path
       id="path2436"
       d="m 86.5,-55.5 -2,2 3.5,3.5 -3.5,3.5 2,2 3.5,-3.5 3.5,3.5 2,-2 -3.5,-3.5 3.5,-3.5 -2,-2 -3.5,3.5 -3.5,-3.5 z"
       style="color:#000000;fill:url(#linearGradient3888);fill-opacity:1;fill-rule:nonzero;stroke:none;stroke-width:0;marker:none;visibility:visible;display:inline;overflow:visible;enable-background:accumulate"
       inkscape:connector-curvature="0" />
    <rect
       style="fill:url(#linearGradient3218);fill-opacity:1;fill-rule:nonzero;stroke:none;stroke-width:0;marker:none;visibility:visible;display:inline;overflow:visible;enable-background:accumulate"
       id="rect2440"
       width="20"
       height="20"
       x="0"
       y="140" />
    <g
       id="g3237"
       transform="translate(0,-80)">
      <path
         style="fill:#c0c0c0;fill-opacity:1;fill-rule:nonzero;stroke:none;stroke-width:0;marker:none;visibility:visible;display:inline;overflow:visible;enable-background:accumulate"
         d="m 3,190 c -1.662,0 -3,1.338 -3,3 l 0,14 c 0,1.662 1.338,3 3,3 l 27,0 5,8 5,-8 27,0 c 1.662,0 3,-1.338 3,-3 l 0,-14 c 0,-1.662 -1.338,-3 -3,-3 l -64,0 z"
         id="path3222"
         sodipodi:nodetypes="cccccccccccc"
         inkscape:connector-curvature="0" />
      <rect
         rx="2"
         ry="2"
         y="191"
         x="1"
         height="18"
         width="68"
         id="rect3224"
         style="fill:url(#linearGradient3233);fill-opacity:1;fill-rule:nonzero;stroke:none;stroke-width:0;marker:none;visibility:visible;display:inline;overflow:visible;enable-background:accumulate" />
      <path
         sodipodi:nodetypes="ccc"
         id="path3235"
         d="m 31,209 4,6.5 4,-6.5"
         style="fill:#e2e2e2;fill-opacity:1;fill-rule:nonzero;stroke:none;stroke-width:0;marker:none;visibility:visible;display:inline;overflow:visible;enable-background:accumulate"
         inkscape:connector-curvature="0" />
    </g>
    <path
       style="color:#000000;fill:url(#linearGradient3189);fill-opacity:1;fill-rule:nonzero;stroke:none;stroke-width:0;marker:none;visibility:visible;display:inline;overflow:visible;enable-background:accumulate"
       d="m 110,-74 c -5,0 -7,4 -7,4 0.13432,0.01358 2,4 7,4 5,0 7,-4 7,-4 0,0 -2,-4 -7,-4 z m 0,1 c 1.656,0 3,1.344 3,3 0,1.656 -1.344,3 -3,3 -1.656,0 -3,-1.344 -3,-3 0,-1.656 1.344,-3 3,-3 z"
       id="path2445"
       inkscape:connector-curvature="0" />
    <path
       id="path3220"
       d="m 110,-54 c -5,0 -7,4 -7,4 0.13432,0.01358 2,4 7,4 5,0 7,-4 7,-4 0,0 -2,-4 -7,-4 z m 0,1 c 1.656,0 3,1.344 3,3 0,1.656 -1.344,3 -3,3 -1.656,0 -3,-1.344 -3,-3 0,-1.656 1.344,-3 3,-3 z"
       style="color:#000000;fill:url(#linearGradient3890);fill-opacity:1;fill-rule:nonzero;stroke:none;stroke-width:0;marker:none;visibility:visible;display:inline;overflow:visible;enable-background:accumulate"
       inkscape:connector-curvature="0" />
    <path
       style="fill:url(#linearGradient2450);fill-opacity:1;fill-rule:nonzero;stroke:none;stroke-width:0;marker:none;visibility:visible;display:inline;overflow:visible;enable-background:accumulate"
       d="m 130,-76 2,2 -6,6 -2,-2 0,6 6,0 -2,-2 6,-6 2,2 0,-6 -6,0 z"
       id="path2446"
       inkscape:connector-curvature="0" />
    <path
       id="path2457"
       d="m 130,-56 2,2 -6,6 -2,-2 0,6 6,0 -2,-2 6,-6 2,2 0,-6 -6,0 z"
       style="color:#000000;fill:url(#linearGradient3197);fill-opacity:1;fill-rule:nonzero;stroke:none;stroke-width:0;marker:none;visibility:visible;display:inline;overflow:visible;enable-background:accumulate"
       inkscape:connector-curvature="0" />
    <path
       style="fill:url(#linearGradient2466);fill-opacity:1;fill-rule:nonzero;stroke:none;stroke-width:0;marker:none;visibility:visible;display:inline;overflow:visible;enable-background:accumulate"
       d="m 168,-74 5,4 -5,4 0,0"
       id="path2448"
       inkscape:connector-curvature="0" />
    <path
       id="path2450"
       d="m 168,-54 5,4 -5,4 0,0"
       style="fill:url(#linearGradient2464);fill-opacity:1;fill-rule:nonzero;stroke:none;stroke-width:0;marker:none;visibility:visible;display:inline;overflow:visible;enable-background:accumulate"
       inkscape:connector-curvature="0" />
    <path
       id="path2456"
       d="m 153,-74 -5,4 5,4 0,0"
       style="fill:url(#linearGradient2460);fill-opacity:1;fill-rule:nonzero;stroke:none;stroke-width:0;marker:none;visibility:visible;display:inline;overflow:visible;enable-background:accumulate"
       inkscape:connector-curvature="0" />
    <path
       style="fill:url(#linearGradient2462);fill-opacity:1;fill-rule:nonzero;stroke:none;stroke-width:0;marker:none;visibility:visible;display:inline;overflow:visible;enable-background:accumulate"
       d="m 153,-54 -5,4 5,4 0,0"
       id="path2458"
       inkscape:connector-curvature="0" />
    <path
       style="fill:url(#linearGradient3892);fill-opacity:1;fill-rule:nonzero;stroke:none;stroke-width:0;marker:none;visibility:visible;display:inline;overflow:visible;enable-background:accumulate"
       d="m 189.5,-75 c -0.277,0 -0.5,0.223 -0.5,0.5 l 0,3.5 -3.5,0 c -0.277,0 -0.5,0.223 -0.5,0.5 l 0,1 c 0,0.277 0.223,0.5 0.5,0.5 l 3.5,0 0,3.5 c 0,0.277 0.223,0.5 0.5,0.5 l 1,0 c 0.277,0 0.5,-0.223 0.5,-0.5 l 0,-3.5 3.5,0 c 0.277,0 0.5,-0.223 0.5,-0.5 l 0,-1 c 0,-0.277 -0.223,-0.5 -0.5,-0.5 l -3.5,0 0,-3.5 c 0,-0.277 -0.223,-0.5 -0.5,-0.5 l -1,0 z"
       id="rect2456"
       sodipodi:nodetypes="ccccccccccccccccccccc"
       inkscape:connector-curvature="0" />
    <path
       id="path2461"
       d="m 189.5,-55 c -0.277,0 -0.5,0.223 -0.5,0.5 l 0,3.5 -3.5,0 c -0.277,0 -0.5,0.223 -0.5,0.5 l 0,1 c 0,0.277 0.223,0.5 0.5,0.5 l 3.5,0 0,3.5 c 0,0.277 0.223,0.5 0.5,0.5 l 1,0 c 0.277,0 0.5,-0.223 0.5,-0.5 l 0,-3.5 3.5,0 c 0.277,0 0.5,-0.223 0.5,-0.5 l 0,-1 c 0,-0.277 -0.223,-0.5 -0.5,-0.5 l -3.5,0 0,-3.5 c 0,-0.277 -0.223,-0.5 -0.5,-0.5 l -1,0 z"
       style="fill:url(#linearGradient3894);fill-opacity:1;fill-rule:nonzero;stroke:none;stroke-width:0;marker:none;visibility:visible;display:inline;overflow:visible;enable-background:accumulate"
       sodipodi:nodetypes="ccccccccccccccccccccc"
       inkscape:connector-curvature="0" />
    <path
       style="color:#000000;fill:url(#linearGradient2465);fill-opacity:1;fill-rule:nonzero;stroke:none;stroke-width:0;marker:none;visibility:visible;display:inline;overflow:visible;enable-background:accumulate"
       d="m 206,-76 -4,6 4,6 12,0 0,-12 -12,0 z m 4.71875,2 1.5,0 2.78125,7 -1.53125,0 -0.625,-1.59375 -2.78125,0 L 209.5,-67 l -1.5,0 2.71875,-7 z m 0.71875,1.625 -0.9375,2.59375 1.90625,0 -0.96875,-2.59375 z"
       id="path2460"
       inkscape:connector-curvature="0" />
    <path
       id="path3238"
       d="m 206,-56 -4,6 4,6 12,0 0,-12 -12,0 z m 4.71875,2 1.5,0 2.78125,7 -1.53125,0 -0.625,-1.59375 -2.78125,0 L 209.5,-47 l -1.5,0 2.71875,-7 z m 0.71875,1.625 -0.9375,2.59375 1.90625,0 -0.96875,-2.59375 z"
       style="color:#000000;fill:url(#linearGradient3896);fill-opacity:1;fill-rule:nonzero;stroke:none;stroke-width:0;marker:none;visibility:visible;display:inline;overflow:visible;enable-background:accumulate"
       inkscape:connector-curvature="0" />
    <path
       style="fill:#7a7a7a;fill-opacity:1;fill-rule:nonzero;stroke:none;stroke-width:0;marker:none;visibility:visible;display:inline;overflow:visible;enable-background:accumulate"
       d="m 225,-76 -1,1 0,5 6,0 0,-6 -5,0 z"
       id="rect3240"
       inkscape:connector-curvature="0" />
    <path
       style="fill:#5f5f5f;fill-opacity:1;fill-rule:nonzero;stroke:none;stroke-width:0;marker:none;visibility:visible;display:inline;overflow:visible;enable-background:accumulate"
       d="m 224,-70 0,5 1,1 5,0 0,-6 -6,0 z"
       id="rect3250"
       inkscape:connector-curvature="0" />
    <path
       id="path3260"
       d="m 236,-70 0,-5 -1,-1 -5,0 0,6 6,0 z"
       style="fill:#5f5f5f;fill-opacity:1;fill-rule:nonzero;stroke:none;stroke-width:0;marker:none;visibility:visible;display:inline;overflow:visible;enable-background:accumulate"
       inkscape:connector-curvature="0" />
    <path
       id="path3262"
       d="m 235,-64 1,-1 0,-5 -6,0 0,6 5,0 z"
       style="fill:#474747;fill-opacity:1;fill-rule:nonzero;stroke:none;stroke-width:0;marker:none;visibility:visible;display:inline;overflow:visible;enable-background:accumulate"
       inkscape:connector-curvature="0" />
    <path
       id="path3264"
       d="m 225,-56 -1,1 0,5 6,0 0,-6 -5,0 z"
       style="fill:#ffffff;fill-opacity:1;fill-rule:nonzero;stroke:none;stroke-width:0;marker:none;visibility:visible;display:inline;overflow:visible;enable-background:accumulate"
       inkscape:connector-curvature="0" />
    <path
       id="path3266"
       d="m 224,-50 0,5 1,1 5,0 0,-6 -6,0 z"
       style="fill:#f0f0f0;fill-opacity:1;fill-rule:nonzero;stroke:none;stroke-width:0;marker:none;visibility:visible;display:inline;overflow:visible;enable-background:accumulate"
       inkscape:connector-curvature="0" />
    <path
       style="fill:#f0f0f0;fill-opacity:1;fill-rule:nonzero;stroke:none;stroke-width:0;marker:none;visibility:visible;display:inline;overflow:visible;enable-background:accumulate"
       d="m 236,-50 0,-5 -1,-1 -5,0 0,6 6,0 z"
       id="path3268"
       inkscape:connector-curvature="0" />
    <path
       style="fill:#e3e3e3;fill-opacity:1;fill-rule:nonzero;stroke:none;stroke-width:0;marker:none;visibility:visible;display:inline;overflow:visible;enable-background:accumulate"
       d="m 235,-44 1,-1 0,-5 -6,0 0,6 5,0 z"
       id="path3270"
       inkscape:connector-curvature="0" />
    <path
       id="path3290"
       d="m 244,-56 c -1.108,0 -2,0.892 -2,2 l 0,8 c 0,1.108 0.892,2 2,2 l 12,0 c 1.108,0 2,-0.892 2,-2 l 0,-8 c 0,-1.108 -0.892,-2 -2,-2 l -12,0 z m 1.9375,3 1.0625,0 0,6 -1.3125,0 0,-4.3125 c -0.47826,0.391308 -1.03843,0.687504 -1.6875,0.875 l 0,-1.0625 c 0.34162,-0.09782 0.72438,-0.259506 1.125,-0.53125 0.40062,-0.274451 0.66343,-0.604614 0.8125,-0.96875 z m 8,0 1.0625,0 0,6 -1.3125,0 0,-4.3125 c -0.47827,0.391308 -1.03843,0.687504 -1.6875,0.875 l 0,-1.0625 c 0.34162,-0.09782 0.72438,-0.259506 1.125,-0.53125 0.40062,-0.274451 0.66343,-0.604614 0.8125,-0.96875 z M 250,-52 c 0.554,0 1,0.446 1,1 0,0.554 -0.446,1 -1,1 -0.554,0 -1,-0.446 -1,-1 0,-0.554 0.446,-1 1,-1 z m 0,3 c 0.554,0 1,0.446 1,1 0,0.554 -0.446,1 -1,1 -0.554,0 -1,-0.446 -1,-1 0,-0.554 0.446,-1 1,-1 z"
       style="color:#000000;fill:url(#linearGradient3898);fill-opacity:1;fill-rule:nonzero;stroke:none;stroke-width:0;marker:none;visibility:visible;display:inline;overflow:visible;enable-background:accumulate"
       inkscape:connector-curvature="0" />
    <path
       style="color:#000000;fill:url(#linearGradient3287);fill-opacity:1;fill-rule:nonzero;stroke:none;stroke-width:0;marker:none;visibility:visible;display:inline;overflow:visible;enable-background:accumulate"
       d="m 268.5,-76 c -3.036,0 -5.5,2.464 -5.5,5.5 0,2.951926 2.33029,5.368722 5.25,5.5 -0.78481,-0.950845 -1.25,-2.17175 -1.25,-3.5 0,-3.036 2.464,-5.5 5.5,-5.5 0.0841,0 0.16684,-0.0037 0.25,0 -1.00905,-1.222515 -2.54225,-2 -4.25,-2 z m 4,3 c -2.484,0 -4.5,2.016 -4.5,4.5 0,2.484 2.016,4.5 4.5,4.5 2.484,0 4.5,-2.016 4.5,-4.5 0,-2.484 -2.016,-4.5 -4.5,-4.5 z"
       id="path2473"
       inkscape:connector-curvature="0" />
    <path
       id="path2498"
       d="m 268.5,-56 c -3.036,0 -5.5,2.464 -5.5,5.5 0,2.951926 2.33029,5.368722 5.25,5.5 -0.78481,-0.950845 -1.25,-2.17175 -1.25,-3.5 0,-3.036 2.464,-5.5 5.5,-5.5 0.0841,0 0.16684,-0.0037 0.25,0 -1.00905,-1.222515 -2.54225,-2 -4.25,-2 z m 4,3 c -2.484,0 -4.5,2.016 -4.5,4.5 0,2.484 2.016,4.5 4.5,4.5 2.484,0 4.5,-2.016 4.5,-4.5 0,-2.484 -2.016,-4.5 -4.5,-4.5 z"
       style="color:#000000;fill:url(#linearGradient2463);fill-opacity:1;fill-rule:nonzero;stroke:none;stroke-width:0;marker:none;visibility:visible;display:inline;overflow:visible;enable-background:accumulate"
       inkscape:connector-curvature="0" />
    <g
       transform="matrix(1,0,0,0.025,0,320)"
       id="g3900"
       style="fill:#aaaaaa;fill-opacity:1">
      <rect
         style="fill:#000000;fill-opacity:0.1254902;fill-rule:nonzero;stroke:none;stroke-width:0;marker:none;visibility:visible;display:inline;overflow:visible;enable-background:accumulate"
         id="rect3902"
         width="400"
         height="40"
         x="0"
         y="360" />
    </g>
    <g
       style="fill:#cccccc;fill-opacity:1"
       id="g3906"
       transform="matrix(1,0,0,0.025,0,321)">
      <rect
         y="360"
         x="0"
         height="40"
         width="400"
         id="rect3908"
         style="fill:#ffffff;fill-opacity:0.1254902;fill-rule:nonzero;stroke:none;stroke-width:0;marker:none;visibility:visible;display:inline;overflow:visible;enable-background:accumulate" />
    </g>
  </g>
</svg>
