<?xml version="1.0" encoding="UTF-8" standalone="no"?>
<!-- Created with Inkscape (http://www.inkscape.org/) -->

<svg
   xmlns:dc="http://purl.org/dc/elements/1.1/"
   xmlns:cc="http://creativecommons.org/ns#"
   xmlns:rdf="http://www.w3.org/1999/02/22-rdf-syntax-ns#"
   xmlns:svg="http://www.w3.org/2000/svg"
   xmlns="http://www.w3.org/2000/svg"
   xmlns:sodipodi="http://sodipodi.sourceforge.net/DTD/sodipodi-0.dtd"
   xmlns:inkscape="http://www.inkscape.org/namespaces/inkscape"
   width="40"
   height="40"
   id="svg2"
   version="1.1"
   inkscape:version="0.48.1 r9760"
   sodipodi:docname="bg.svg"
   inkscape:export-filename="/home/devseed/tilemill/assets/images/bg.png"
   inkscape:export-xdpi="90"
   inkscape:export-ydpi="90">
  <defs
     id="defs4" />
  <sodipodi:namedview
     id="base"
     pagecolor="#ffffff"
     bordercolor="#666666"
     borderopacity="1.0"
     inkscape:pageopacity="0.0"
     inkscape:pageshadow="2"
     inkscape:zoom="1"
     inkscape:cx="25.677036"
     inkscape:cy="-3.9155417"
     inkscape:document-units="px"
     inkscape:current-layer="layer1"
     showgrid="false">
    <inkscape:grid
       type="xygrid"
       id="grid2985"
       empspacing="5"
       visible="true"
       enabled="true"
       snapvisiblegridlinesonly="true" />
  </sodipodi:namedview>
  <metadata
     id="metadata7">
    <rdf:RDF>
      <cc:Work
         rdf:about="">
        <dc:format>image/svg+xml</dc:format>
        <dc:type
           rdf:resource="http://purl.org/dc/dcmitype/StillImage" />
        <dc:title></dc:title>
      </cc:Work>
    </rdf:RDF>
  </metadata>
  <g
     inkscape:label="Layer 1"
     inkscape:groupmode="layer"
     id="layer1"
     transform="translate(0,-1012.3622)">
    <path
       style="color:#000000;fill:#6fb1f9;fill-opacity:0.25098039;fill-rule:nonzero;stroke:none;stroke-width:0;marker:none;visibility:visible;display:inline;overflow:visible;enable-background:accumulate"
       d="m 0,1016.3622 0,1 1,0 0,-1 -1,0 z m 5,0 0,1 1,0 0,-1 -1,0 z m 5,0 0,1 1,0 0,-1 -1,0 z m 5,0 0,1 1,0 0,-1 -1,0 z m 5,0 0,1 1,0 0,-1 -1,0 z m 5,0 0,1 1,0 0,-1 -1,0 z m 5,0 0,1 1,0 0,-1 -1,0 z m 5,0 0,1 1,0 0,-1 -1,0 z m -35,5 0,1 1,0 0,-1 -1,0 z m 5,0 0,1 1,0 0,-1 -1,0 z m 5,0 0,1 1,0 0,-1 -1,0 z m 5,0 0,1 1,0 0,-1 -1,0 z m 5,0 0,1 1,0 0,-1 -1,0 z m 5,0 0,1 1,0 0,-1 -1,0 z m 5,0 0,1 1,0 0,-1 -1,0 z m 5,0 0,1 1,0 0,-1 -1,0 z m -35,5 0,1 1,0 0,-1 -1,0 z m 5,0 0,1 1,0 0,-1 -1,0 z m 5,0 0,1 1,0 0,-1 -1,0 z m 5,0 0,1 1,0 0,-1 -1,0 z m 5,0 0,1 1,0 0,-1 -1,0 z m 5,0 0,1 1,0 0,-1 -1,0 z m 5,0 0,1 1,0 0,-1 -1,0 z m 5,0 0,1 1,0 0,-1 -1,0 z m -35,5 0,1 1,0 0,-1 -1,0 z m 5,0 0,1 1,0 0,-1 -1,0 z m 5,0 0,1 1,0 0,-1 -1,0 z m 5,0 0,1 1,0 0,-1 -1,0 z m 5,0 0,1 1,0 0,-1 -1,0 z m 5,0 0,1 1,0 0,-1 -1,0 z m 5,0 0,1 1,0 0,-1 -1,0 z m 5,0 0,1 1,0 0,-1 -1,0 z m -35,5 0,1 1,0 0,-1 -1,0 z m 5,0 0,1 1,0 0,-1 -1,0 z m 5,0 0,1 1,0 0,-1 -1,0 z m 5,0 0,1 1,0 0,-1 -1,0 z m 5,0 0,1 1,0 0,-1 -1,0 z m 5,0 0,1 1,0 0,-1 -1,0 z m 5,0 0,1 1,0 0,-1 -1,0 z m 5,0 0,1 1,0 0,-1 -1,0 z m -35,5 0,1 1,0 0,-1 -1,0 z m 5,0 0,1 1,0 0,-1 -1,0 z m 5,0 0,1 1,0 0,-1 -1,0 z m 5,0 0,1 1,0 0,-1 -1,0 z m 5,0 0,1 1,0 0,-1 -1,0 z m 5,0 0,1 1,0 0,-1 -1,0 z m 5,0 0,1 1,0 0,-1 -1,0 z m 5,0 0,1 1,0 0,-1 -1,0 z m -35,5 0,1 1,0 0,-1 -1,0 z m 5,0 0,1 1,0 0,-1 -1,0 z m 5,0 0,1 1,0 0,-1 -1,0 z m 5,0 0,1 1,0 0,-1 -1,0 z m 5,0 0,1 1,0 0,-1 -1,0 z m 5,0 0,1 1,0 0,-1 -1,0 z m 5,0 0,1 1,0 0,-1 -1,0 z m 5,0 0,1 1,0 0,-1 -1,0 z m -35,5 0,1 1,0 0,-1 -1,0 z m 5,0 0,1 1,0 0,-1 -1,0 z m 5,0 0,1 1,0 0,-1 -1,0 z m 5,0 0,1 1,0 0,-1 -1,0 z m 5,0 0,1 1,0 0,-1 -1,0 z m 5,0 0,1 1,0 0,-1 -1,0 z m 5,0 0,1 1,0 0,-1 -1,0 z m 5,0 0,1 1,0 0,-1 -1,0 z"
       id="rect3757"
       inkscape:connector-curvature="0" />
  </g>
</svg>
