<?xml version="1.0" encoding="UTF-8" standalone="no"?>
<!-- Created with Inkscape (http://www.inkscape.org/) -->

<svg
   xmlns:dc="http://purl.org/dc/elements/1.1/"
   xmlns:cc="http://creativecommons.org/ns#"
   xmlns:rdf="http://www.w3.org/1999/02/22-rdf-syntax-ns#"
   xmlns:svg="http://www.w3.org/2000/svg"
   xmlns="http://www.w3.org/2000/svg"
   xmlns:sodipodi="http://sodipodi.sourceforge.net/DTD/sodipodi-0.dtd"
   xmlns:inkscape="http://www.inkscape.org/namespaces/inkscape"
   width="40"
   height="45"
   id="svg3238"
   version="1.1"
   inkscape:version="0.48.2 r9819"
   sodipodi:docname="tilemill.svg"
   inkscape:export-filename="/home/devseed/tilemill/assets/images/tilemill.png"
   inkscape:export-xdpi="90"
   inkscape:export-ydpi="90">
  <defs
     id="defs3240" />
  <sodipodi:namedview
     id="base"
     pagecolor="#ffffff"
     bordercolor="#666666"
     borderopacity="1.0"
     inkscape:pageopacity="0.0"
     inkscape:pageshadow="2"
     inkscape:zoom="4.7683716"
     inkscape:cx="-5.8855077"
     inkscape:cy="18.689226"
     inkscape:document-units="px"
     inkscape:current-layer="layer1"
     showgrid="false"
     inkscape:window-width="1440"
     inkscape:window-height="852"
     inkscape:window-x="0"
     inkscape:window-y="0"
     inkscape:window-maximized="1"
     fit-margin-top="0"
     fit-margin-left="0"
     fit-margin-right="0"
     fit-margin-bottom="0">
    <inkscape:grid
       type="xygrid"
       id="grid3255"
       empspacing="5"
       visible="true"
       enabled="true"
       snapvisiblegridlinesonly="true" />
  </sodipodi:namedview>
  <metadata
     id="metadata3243">
    <rdf:RDF>
      <cc:Work
         rdf:about="">
        <dc:format>image/svg+xml</dc:format>
        <dc:type
           rdf:resource="http://purl.org/dc/dcmitype/StillImage" />
        <dc:title />
      </cc:Work>
    </rdf:RDF>
  </metadata>
  <g
     inkscape:label="Layer 1"
     inkscape:groupmode="layer"
     id="layer1"
     transform="translate(0,-1007.3622)">
    <path
       inkscape:connector-curvature="0"
       id="path4577"
       d="m 11.5,1007.3622 -3,3 8,8 1.99999,-4 -7,-7 z m -3.5,3.5 -1.5,1.5 8.5,8.5 1.5,-1.5 -8.5,-8.5 z m 24,0 -8.5,8.5 1.5,1.5 8.5,-8.5 -1.5,-1.5 z m 2,2 -8,8 4,2 7,-7 -3,-3 z m -14,4 -9.34375,9.3437 -0.65625,-0.3437 -7,7 3,3 3.8125,-3.8125 -0.125,1.125 -3.1875,3.1875 1.5,1.5 1.28125,-1.2813 L 8,1047.3622 c -5,1.0001 -8,5 -8,5 l 40,0 c 0,0 -3,-3.9999 -8,-5 l -1,-8.5 0.5,-0.5 -0.625,-0.5313 -0.15626,-1.25 1.28126,1.2813 1.5,-1.5 -3.1875,-3.1875 -0.81251,-6.8125 -9.49999,-9.5 z m -1.5,11.5 3,0 1,6 -5,0 1,-6 z"
       style="color:#000000;fill:#404040;fill-opacity:1;fill-rule:nonzero;stroke:none;stroke-width:0.05500000000000000;marker:none;visibility:visible;display:inline;overflow:visible;enable-background:accumulate"
       inkscape:export-filename="/Users/diggersf/path4575.png"
       inkscape:export-xdpi="658.28571"
       inkscape:export-ydpi="658.28571" />
  </g>
</svg>
