<?xml version="1.0" encoding="UTF-8" standalone="no"?>
<!-- Created with Inkscape (http://www.inkscape.org/) -->

<svg
  xmlns:dc="http://purl.org/dc/elements/1.1/"
  xmlns:cc="http://creativecommons.org/ns#"
  xmlns:rdf="http://www.w3.org/1999/02/22-rdf-syntax-ns#"
  xmlns:svg="http://www.w3.org/2000/svg"
  xmlns="http://www.w3.org/2000/svg"
  xmlns:sodipodi="http://sodipodi.sourceforge.net/DTD/sodipodi-0.dtd"
  xmlns:inkscape="http://www.inkscape.org/namespaces/inkscape"
  width="347"
  height="80"
  id="svg2"
  version="1.1"
  inkscape:version="0.47+devel r9536"
  sodipodi:docname="New document 55">
 <defs
   id="defs4">
  <inkscape:perspective
    sodipodi:type="inkscape:persp3d"
    inkscape:vp_x="0 : 526.18109 : 1"
    inkscape:vp_y="0 : 1000 : 0"
    inkscape:vp_z="744.09448 : 526.18109 : 1"
    inkscape:persp3d-origin="372.04724 : 350.78739 : 1"
    id="perspective10" />
 </defs>
 <sodipodi:namedview
   id="base"
   pagecolor="#ffffff"
   bordercolor="#666666"
   borderopacity="1.0"
   inkscape:pageopacity="0.0"
   inkscape:pageshadow="2"
   inkscape:zoom="0.94609375"
   inkscape:cx="77.067713"
   inkscape:cy="90.156895"
   inkscape:document-units="px"
   inkscape:current-layer="layer1"
   showgrid="true"
   guidecolor="#7901ff"
   guideopacity="0.25098039"
   guidehicolor="#ff015b"
   guidehiopacity="0.25098039"
   inkscape:window-width="1280"
   inkscape:window-height="752"
   inkscape:window-x="0"
   inkscape:window-y="25"
   inkscape:window-maximized="1"
   fit-margin-top="0"
   fit-margin-left="0"
   fit-margin-right="0"
   fit-margin-bottom="0">
  <inkscape:grid
    type="xygrid"
    id="grid5588"
    empspacing="5"
    visible="true"
    enabled="true"
    snapvisiblegridlinesonly="true"
    color="#0179ff"
    opacity="0.0627451"
    empcolor="#0078ff"
    empopacity="0.1254902" />
 </sodipodi:namedview>
 <metadata
   id="metadata7">
  <rdf:RDF>
   <cc:Work
     rdf:about="">
    <dc:format>image/svg+xml</dc:format>
    <dc:type
      rdf:resource="http://purl.org/dc/dcmitype/StillImage" />
    <dc:title></dc:title>
   </cc:Work>
  </rdf:RDF>
 </metadata>
 <g
   inkscape:label="Layer 1"
   inkscape:groupmode="layer"
   id="layer1"
   transform="translate(-861,-632.36218)">
  <path
    transform="matrix(0.04,0,0,0.04,837,692.36218)"
    d="M 900,450 C 900,477.61424 877.61424,500 850,500 822.38576,500 800,477.61424 800,450 800,422.38576 822.38576,400 850,400 877.61424,400 900,422.38576 900,450 z"
    sodipodi:ry="50"
    sodipodi:rx="50"
    sodipodi:cy="450"
    sodipodi:cx="850"
    id="path15512"
    style="color:#000000;fill:#e93e17;fill-opacity:0.75294118;fill-rule:nonzero;stroke:none;stroke-width:20;marker:none;visibility:visible;display:inline;overflow:visible;enable-background:accumulate"
    sodipodi:type="arc"
    inkscape:export-filename="/home/aj/devseed/github/TileMill/tilemill/static/images/points/1.png"
    inkscape:export-xdpi="90"
    inkscape:export-ydpi="90" />
  <path
    sodipodi:type="arc"
    style="color:#000000;fill:#e93e17;fill-opacity:0.75294118;fill-rule:nonzero;stroke:none;stroke-width:13.33333397;marker:none;visibility:visible;display:inline;overflow:visible;enable-background:accumulate"
    id="path15531"
    sodipodi:cx="850"
    sodipodi:cy="450"
    sodipodi:rx="50"
    sodipodi:ry="50"
    d="M 900,450 C 900,477.61424 877.61424,500 850,500 822.38576,500 800,477.61424 800,450 800,422.38576 822.38576,400 850,400 877.61424,400 900,422.38576 900,450 z"
    transform="matrix(0.06,0,0,0.06,830,682.36218)"
    inkscape:export-filename="/home/aj/devseed/github/TileMill/tilemill/static/images/points/2.png"
    inkscape:export-xdpi="90"
    inkscape:export-ydpi="90" />
  <path
    transform="matrix(0.09,0,0,0.09,817,667.36218)"
    d="M 900,450 C 900,477.61424 877.61424,500 850,500 822.38576,500 800,477.61424 800,450 800,422.38576 822.38576,400 850,400 877.61424,400 900,422.38576 900,450 z"
    sodipodi:ry="50"
    sodipodi:rx="50"
    sodipodi:cy="450"
    sodipodi:cx="850"
    id="path15533"
    style="color:#000000;fill:#e93e17;fill-opacity:0.75294118;fill-rule:nonzero;stroke:none;stroke-width:8.88888931;marker:none;visibility:visible;display:inline;overflow:visible;enable-background:accumulate"
    sodipodi:type="arc"
    inkscape:export-filename="/home/aj/devseed/github/TileMill/tilemill/static/images/points/3.png"
    inkscape:export-xdpi="90"
    inkscape:export-ydpi="90" />
  <path
    sodipodi:type="arc"
    style="color:#000000;fill:#e93e17;fill-opacity:0.75294118;fill-rule:nonzero;stroke:none;stroke-width:6.15384626;marker:none;visibility:visible;display:inline;overflow:visible;enable-background:accumulate"
    id="path15535"
    sodipodi:cx="850"
    sodipodi:cy="450"
    sodipodi:rx="50"
    sodipodi:ry="50"
    d="M 900,450 C 900,477.61424 877.61424,500 850,500 822.38576,500 800,477.61424 800,450 800,422.38576 822.38576,400 850,400 877.61424,400 900,422.38576 900,450 z"
    transform="matrix(0.13,0,0,0.13,799,647.36218)"
    inkscape:export-filename="/home/aj/devseed/github/TileMill/tilemill/static/images/points/4.png"
    inkscape:export-xdpi="90"
    inkscape:export-ydpi="90" />
  <path
    transform="matrix(0.18,0,0,0.18,777,622.36218)"
    d="M 900,450 C 900,477.61424 877.61424,500 850,500 822.38576,500 800,477.61424 800,450 800,422.38576 822.38576,400 850,400 877.61424,400 900,422.38576 900,450 z"
    sodipodi:ry="50"
    sodipodi:rx="50"
    sodipodi:cy="450"
    sodipodi:cx="850"
    id="path15537"
    style="color:#000000;fill:#e93e17;fill-opacity:0.75294118;fill-rule:nonzero;stroke:none;stroke-width:4.44444466;marker:none;visibility:visible;display:inline;overflow:visible;enable-background:accumulate"
    sodipodi:type="arc"
    inkscape:export-filename="/home/aj/devseed/github/TileMill/tilemill/static/images/points/5.png"
    inkscape:export-xdpi="90"
    inkscape:export-ydpi="90" />
  <path
    sodipodi:type="arc"
    style="color:#000000;fill:#e93e17;fill-opacity:0.75294118;fill-rule:nonzero;stroke:none;stroke-width:3.20000005;marker:none;visibility:visible;display:inline;overflow:visible;enable-background:accumulate"
    id="path15539"
    sodipodi:cx="850"
    sodipodi:cy="450"
    sodipodi:rx="50"
    sodipodi:ry="50"
    d="M 900,450 C 900,477.61424 877.61424,500 850,500 822.38576,500 800,477.61424 800,450 800,422.38576 822.38576,400 850,400 877.61424,400 900,422.38576 900,450 z"
    transform="matrix(0.25,0,0,0.25,744,587.36218)"
    inkscape:export-filename="/home/aj/devseed/github/TileMill/tilemill/static/images/points/6.png"
    inkscape:export-xdpi="90"
    inkscape:export-ydpi="90" />
  <path
    transform="matrix(0.34,0,0,0.34,702,542.36218)"
    d="M 900,450 C 900,477.61424 877.61424,500 850,500 822.38576,500 800,477.61424 800,450 800,422.38576 822.38576,400 850,400 877.61424,400 900,422.38576 900,450 z"
    sodipodi:ry="50"
    sodipodi:rx="50"
    sodipodi:cy="450"
    sodipodi:cx="850"
    id="path15541"
    style="color:#000000;fill:#e93e17;fill-opacity:0.75294118;fill-rule:nonzero;stroke:none;stroke-width:2.35294127;marker:none;visibility:visible;display:inline;overflow:visible;enable-background:accumulate"
    sodipodi:type="arc"
    inkscape:export-filename="/home/aj/devseed/github/TileMill/tilemill/static/images/points/7.png"
    inkscape:export-xdpi="90"
    inkscape:export-ydpi="90" />
  <path
    sodipodi:type="arc"
    style="color:#000000;fill:#e93e17;fill-opacity:0.75294118;fill-rule:nonzero;stroke:none;stroke-width:1.77777779;marker:none;visibility:visible;display:inline;overflow:visible;enable-background:accumulate"
    id="path15543"
    sodipodi:cx="850"
    sodipodi:cy="450"
    sodipodi:rx="50"
    sodipodi:ry="50"
    d="M 900,450 C 900,477.61424 877.61424,500 850,500 822.38576,500 800,477.61424 800,450 800,422.38576 822.38576,400 850,400 877.61424,400 900,422.38576 900,450 z"
    transform="matrix(0.45,0,0,0.45,653,487.36218)"
    inkscape:export-filename="/home/aj/devseed/github/TileMill/tilemill/static/images/points/8.png"
    inkscape:export-xdpi="90"
    inkscape:export-ydpi="90" />
  <path
    transform="matrix(0.6,0,0,0.6,583,412.36218)"
    d="M 900,450 C 900,477.61424 877.61424,500 850,500 822.38576,500 800,477.61424 800,450 800,422.38576 822.38576,400 850,400 877.61424,400 900,422.38576 900,450 z"
    sodipodi:ry="50"
    sodipodi:rx="50"
    sodipodi:cy="450"
    sodipodi:cx="850"
    id="path15545"
    style="color:#000000;fill:#e93e17;fill-opacity:0.75294118;fill-rule:nonzero;stroke:none;stroke-width:1.33333337;marker:none;visibility:visible;display:inline;overflow:visible;enable-background:accumulate"
    sodipodi:type="arc"
    inkscape:export-filename="/home/aj/devseed/github/TileMill/tilemill/static/images/points/9.png"
    inkscape:export-xdpi="90"
    inkscape:export-ydpi="90" />
  <path
    sodipodi:type="arc"
    style="color:#000000;fill:#e93e17;fill-opacity:0.75294118;fill-rule:nonzero;stroke:none;stroke-width:1;marker:none;visibility:visible;display:inline;overflow:visible;enable-background:accumulate"
    id="path15547"
    sodipodi:cx="850"
    sodipodi:cy="450"
    sodipodi:rx="50"
    sodipodi:ry="50"
    d="M 900,450 C 900,477.61424 877.61424,500 850,500 822.38576,500 800,477.61424 800,450 800,422.38576 822.38576,400 850,400 877.61424,400 900,422.38576 900,450 z"
    transform="matrix(0.8,0,0,0.8,488,312.36218)"
    inkscape:transform-center-x="197.33333"
    inkscape:transform-center-y="-160" />
  <path
    sodipodi:type="arc"
    style="color:#000000;fill:#e93e17;fill-opacity:0.75294118;fill-rule:nonzero;stroke:none;stroke-width:40;marker:none;visibility:visible;display:inline;overflow:visible;enable-background:accumulate"
    id="path15551"
    sodipodi:cx="850"
    sodipodi:cy="450"
    sodipodi:rx="50"
    sodipodi:ry="50"
    d="M 900,450 C 900,477.61424 877.61424,500 850,500 822.38576,500 800,477.61424 800,450 800,422.38576 822.38576,400 850,400 877.61424,400 900,422.38576 900,450 z"
    transform="matrix(0.02,0,0,0.02,845,702.36218)"
    inkscape:export-filename="/home/aj/devseed/github/TileMill/tilemill/static/images/points/0.png"
    inkscape:export-xdpi="90"
    inkscape:export-ydpi="90" />
 </g>
</svg>
