<?xml version="1.0" encoding="UTF-8" standalone="no"?>
<!-- Created with Inkscape (http://www.inkscape.org/) -->

<svg
   xmlns:dc="http://purl.org/dc/elements/1.1/"
   xmlns:cc="http://creativecommons.org/ns#"
   xmlns:rdf="http://www.w3.org/1999/02/22-rdf-syntax-ns#"
   xmlns:svg="http://www.w3.org/2000/svg"
   xmlns="http://www.w3.org/2000/svg"
   xmlns:sodipodi="http://sodipodi.sourceforge.net/DTD/sodipodi-0.dtd"
   xmlns:inkscape="http://www.inkscape.org/namespaces/inkscape"
   width="150"
   height="130"
   id="svg7551"
   version="1.1"
   inkscape:version="0.48.2 r9819"
   sodipodi:docname="tilemill-sprite.svg"
   inkscape:export-filename="./tilemill-sprite.png"
   inkscape:export-xdpi="90"
   inkscape:export-ydpi="90">
  <defs
     id="defs7553" />
  <sodipodi:namedview
     id="base"
     pagecolor="#ffffff"
     bordercolor="#666666"
     borderopacity="1.0"
     inkscape:pageopacity="0.0"
     inkscape:pageshadow="2"
     inkscape:zoom="1"
     inkscape:cx="136.32456"
     inkscape:cy="91.517566"
     inkscape:document-units="px"
     inkscape:current-layer="layer1"
     showgrid="true"
     inkscape:window-width="1280"
     inkscape:window-height="756"
     inkscape:window-x="43"
     inkscape:window-y="0"
     inkscape:window-maximized="0"
     inkscape:snap-nodes="false"
     inkscape:snap-bbox="true"
     showguides="false"
     inkscape:guide-bbox="true"
     fit-margin-top="0"
     fit-margin-left="0"
     fit-margin-right="0"
     fit-margin-bottom="0">
    <inkscape:grid
       type="xygrid"
       id="grid7629"
       empspacing="5"
       visible="true"
       enabled="true"
       snapvisiblegridlinesonly="true" />
    <sodipodi:guide
       orientation="1,0"
       position="20,-145"
       id="guide8213" />
    <sodipodi:guide
       orientation="1,0"
       position="40,-150"
       id="guide8215" />
    <sodipodi:guide
       orientation="1,0"
       position="60,-145"
       id="guide8217" />
    <sodipodi:guide
       orientation="1,0"
       position="80,-145"
       id="guide8219" />
    <sodipodi:guide
       orientation="1,0"
       position="100,-140"
       id="guide8221" />
    <sodipodi:guide
       orientation="0,1"
       position="20,20"
       id="guide17715" />
    <sodipodi:guide
       orientation="0,1"
       position="30,-3.8281252e-07"
       id="guide17717" />
  </sodipodi:namedview>
  <metadata
     id="metadata7556">
    <rdf:RDF>
      <cc:Work
         rdf:about="">
        <dc:format>image/svg+xml</dc:format>
        <dc:type
           rdf:resource="http://purl.org/dc/dcmitype/StillImage" />
        <dc:title></dc:title>
      </cc:Work>
    </rdf:RDF>
  </metadata>
  <g
     inkscape:groupmode="layer"
     id="layer2"
     inkscape:label="base"
     transform="translate(0,-22.362183)"
     style="display:none">
    <rect
       style="color:#000000;fill:#f2f2f2;fill-opacity:1;fill-rule:nonzero;stroke:none;stroke-width:2;marker:none;visibility:visible;display:inline;overflow:visible;enable-background:accumulate"
       id="rect17711"
       width="150"
       height="130"
       x="-4.2188475e-15"
       y="22.362183"
       rx="0"
       ry="0" />
  </g>
  <g
     inkscape:label="Layer 1"
     inkscape:groupmode="layer"
     id="layer1"
     transform="translate(0,-22.362183)">
    <g
       id="g5159-5-0"
       style="fill:#3887be;fill-opacity:1;display:inline"
       transform="matrix(0.13533835,0,0,0.13533835,-79.13139,70.25293)">
      <path
         sodipodi:nodetypes="sssssssccscsssccs"
         inkscape:connector-curvature="0"
         id="path4461-5-6-54"
         d="m 1024,-153.63782 c -26.7335,0 -42,21.26647 -42,47.5 0,26.23353 18.7665,47.5 45,47.5 11.5781,0 21.6808,-2.95648 30.375,-9.8125 1.5882,-1.2524 2.1975,-3.54216 0.6875,-5.6875 l -5.7187,-8.125 c -1.0175,-1.44569 -3.7254,-1.50761 -5.125,-0.34375 -5.6761,4.72014 -11.5426,6.96236 -20.2188,6.96875 -12.8426,0.009 -22,-11 -24.75,-22 l 58.9062,0 c 3,0 4.1629,-1 4.625,-4 0.145,-1.47826 0.2188,-2.98087 0.2188,-4.5 0,-26.23353 -15.2665,-47.5 -42,-47.5 z m 0,19 c 12.9126,0 18.9857,7.92579 21.8438,19 l -43.6876,0 c 2.8583,-11.07421 8.9312,-19 21.8438,-19 z"
         clip-path="none"
         style="color:#000000;fill:#3887be;fill-opacity:1;fill-rule:nonzero;stroke:none;stroke-width:50;marker:none;visibility:visible;display:inline;overflow:visible;enable-background:accumulate" />
      <path
         inkscape:connector-curvature="0"
         style="color:#000000;fill:#3887be;fill-opacity:1;fill-rule:nonzero;stroke:none;stroke-width:50;marker:none;visibility:visible;display:inline;overflow:visible;enable-background:accumulate"
         d="m 1088,-191.63782 c -3,0 -4,1 -4,4 l 0,125 c 0,3 1,4 4,4 l 11.125,0 c 2.4443,0 3.5452,-0.69394 3.875,-2.5625 l 0,-105.4375 33.25,58.5 c 1.326,2.33303 2.75,3.48718 4.75,3.5 2,0.0128 3.424,-1.16697 4.75,-3.5 l 33.25,-58.5 0,104 c 0,3 1,4 4,4 l 11,0 c 3,0 4,-1 4,-4 l 0,-125 c 0,-3 -1,-4 -4,-4 l -17.125,0 c -2.4946,0 -4.1451,1.06903 -5.5,3.5 l -30.375,53.5 -30.4375,-53.59375 c -1.1306,-1.99082 -1.5043,-3.40625 -4.0005,-3.40625 z"
         id="path4595-9-5-3"
         sodipodi:nodetypes="sssssccssscsssssscscscs" />
      <path
         id="path24748-9-8-0-0"
         d="m 822.75,-191.63782 c -2.54936,0 -3.84374,1.57369 -3.84375,4.03125 l 0,10.9375 c 0,2.45759 1.29438,4.03125 3.84375,4.03125 l 33.25,0 0,110.15625 c 0,2.54936 1.57368,3.84375 4.03125,3.84375 l 10.9375,0 c 2.45757,0 4.03125,-1.29439 4.03125,-3.84375 l 0,-110.15625 32.90625,0 c 2.99998,0 3.99999,-1.00004 4,-4 l 0,-11 c 0,-2.99999 -0.99994,-4 -4,-4 l -85.15625,0 z"
         style="color:#000000;fill:#3887be;fill-opacity:1;fill-rule:nonzero;stroke:none;stroke-width:50;marker:none;visibility:visible;display:inline;overflow:visible;enable-background:accumulate"
         inkscape:connector-curvature="0" />
      <path
         sodipodi:nodetypes="ccccccccc"
         inkscape:connector-curvature="0"
         id="path3668-1-1-2"
         d="m 948,-191.63782 c -3,0 -4,1 -4,4 l 0,125.14664 c 0,2.54936 1.57368,3.84375 4.03125,3.84375 l 10.9375,0 c 2.45757,0 4.03125,-1.29439 4.03125,-3.84375 l 0,-125.14664 c 0,-3 -1,-4 -4,-4 -3.66667,0 -7.33333,0 -11,0 z"
         style="color:#000000;fill:#3887be;fill-opacity:1;fill-rule:nonzero;stroke:none;stroke-width:50;marker:none;visibility:visible;display:inline;overflow:visible;enable-background:accumulate" />
      <path
         sodipodi:nodetypes="ccccccccc"
         inkscape:connector-curvature="0"
         id="path4597-9-0-7"
         d="m 1225,-153.63782 c -3,0 -4,1 -4,4 l 0,87.14664 c 0,2.54936 1.5737,3.84375 4.0312,3.84375 l 10.9375,0 c 2.4576,0 4.0313,-1.29439 4.0313,-3.84375 l 0,-87.14664 c 0,-3 -1,-4 -4,-4 -3.6667,0 -7.3333,0 -11,0 z"
         style="color:#000000;fill:#3887be;fill-opacity:1;fill-rule:nonzero;stroke:none;stroke-width:50;marker:none;visibility:visible;display:inline;overflow:visible;enable-background:accumulate" />
      <path
         style="color:#000000;fill:#3887be;fill-opacity:1;fill-rule:nonzero;stroke:none;stroke-width:50;marker:none;visibility:visible;display:inline;overflow:visible;enable-background:accumulate"
         d="m 1267,-191.63782 c -3,0 -4,1 -4,4 l 0,125.14664 c 0,2.54936 1.5737,3.84375 4.0312,3.84375 l 10.9375,0 c 2.4576,0 4.0313,-1.29439 4.0313,-3.84375 l 0,-125.14664 c 0,-3 -1,-4 -4,-4 -3.6667,0 -7.3333,0 -11,0 z"
         id="path4599-5-2-1"
         inkscape:connector-curvature="0"
         sodipodi:nodetypes="ccccccccc" />
      <path
         sodipodi:nodetypes="ccccccccc"
         inkscape:connector-curvature="0"
         id="path4601-6-4-7"
         d="m 1310,-191.63782 c -3,0 -4,1 -4,4 l 0,125.14664 c 0,2.54936 1.5737,3.84375 4.0312,3.84375 l 10.9375,0 c 2.4576,0 4.0313,-1.29439 4.0313,-3.84375 l 0,-125.14664 c 0,-3 -1,-4 -4,-4 -3.6667,0 -7.3333,0 -11,0 z"
         style="color:#000000;fill:#3887be;fill-opacity:1;fill-rule:nonzero;stroke:none;stroke-width:50;marker:none;visibility:visible;display:inline;overflow:visible;enable-background:accumulate" />
      <path
         style="color:#000000;fill:#3887be;fill-opacity:1;fill-rule:nonzero;stroke:none;stroke-width:50;marker:none;visibility:visible;display:inline;overflow:visible;enable-background:accumulate"
         d="m 905,-153.63782 c -3,0 -4,1 -4,4 l 0,87.14664 c 0,2.54936 1.5737,3.84375 4.0312,3.84375 l 10.9375,0 c 2.4576,0 4.0313,-1.29439 4.0313,-3.84375 l 0,-87.14664 c 0,-3 -1,-4 -4,-4 -3.6667,0 -7.3333,0 -11,0 z"
         id="path4605-5-0-9"
         inkscape:connector-curvature="0"
         sodipodi:nodetypes="ccccccccc" />
    </g>
    <g
       style="fill:#3887be;fill-opacity:1;display:inline"
       id="g33033"
       transform="matrix(0.15376317,0,0,0.15376317,-92.443233,72.046421)">
      <path
         style="color:#000000;fill:#3887be;fill-opacity:1;fill-rule:nonzero;stroke:none;stroke-width:1.39130473;marker:none;visibility:visible;display:inline;overflow:visible;enable-background:accumulate"
         d="m 628.09847,-233.32532 c -0.58817,0.0511 -1.19873,0.26951 -1.6875,0.65625 l -14.875,11.78125 c -1.30334,1.03129 -1.63391,3.00365 -0.5,4.21875 l 33.03999,34.68876 c 1.13394,1.21509 2.91542,1.5313 4.21875,0.5 l 10.1875,-8.0625 c 1.30334,-1.03131 1.39058,-2.83584 0.46875,-4.21875 l -28.28999,-38.43876 c -0.46094,-0.69147 -1.22462,-1.0462 -2,-1.125 -0.19384,-0.0197 -0.36644,-0.017 -0.5625,0 z m 107.11999,0 c -0.77538,0.0788 -1.50781,0.43353 -1.96875,1.125 l -28.32125,38.43876 c -0.92183,1.38291 -0.80334,3.18744 0.5,4.21875 l 10.1875,8.0625 c 1.30333,1.0313 3.08481,0.71509 4.21875,-0.5 l 33.04,-34.68876 c 1.13391,-1.2151 0.80334,-3.18746 -0.5,-4.21875 l -14.90625,-11.78125 c -0.65169,-0.51566 -1.47463,-0.73501 -2.25,-0.65625 z m -53.2475,39.87032 c -1.29714,0 -2.62388,0.61384 -4.5625,1.90625 l -34,27.81718 c -2.16971,1.72199 -4.05099,2.59745 -4.48718,5.48626 l -5.66907,37.54499 -22.4375,25 c -1.13391,1.2151 -0.80334,3.18746 0.5,4.21875 l 16.09375,12.78125 -4.13593,18.259688 -9.83625,2.709062 c -2.63278,0.86103 -3.87318,1.97325 -4.25,4.5625 l -1.5625,11.63906 c -0.37682,2.58926 -0.0513,4.5625 2.71875,4.5625 l 143.22561,0 c 2.77004,0 3.09557,-1.97324 2.71875,-4.5625 l -1.5625,-11.63906 c -0.37682,-2.58926 -1.61722,-3.70147 -4.25,-4.5625 l -9.83624,-2.709062 -4.10469,-18.040938 16.375,-13 c 1.30334,-1.03129 1.63391,-3.00365 0.5,-4.21875 l -22.8125,-25.40625 -5.60656,-37.13874 c -0.4003,-2.8747 -2.31748,-3.76427 -4.48719,-5.48626 l -34,-27.81718 c -1.93862,-1.29241 -3.23411,-1.90625 -4.53125,-1.90625 z m -5.5625,43.03406 11,0 c 2.77,0 3.53127,1.26995 4,4 l 4,23.2975 c 0.46873,2.73005 -0.23,4 -3,4 l -21,0 c -2.77,0 -3.46873,-1.26995 -3,-4 l 4,-23.2975 c 0.46873,-2.73005 1.23,-4 4,-4 z"
         id="path33031"
         inkscape:connector-curvature="0"
         sodipodi:nodetypes="cccccccccscccccccccccsccsccccccccsscccccccccccssssssssss" />
    </g>
    <path
       inkscape:connector-curvature="0"
       style="fill:#96a4ab;fill-opacity:1;display:inline"
       d="m 25,135.36228 c -0.554,0 -1,0.446 -1,1 l 0,2 2.5,0 5,0 4.5,0 0,-2 c 0,-0.554 -0.446,-1 -1,-1 l -10,0 z m -1,4 0,2 2,0 0,-2 -2,0 z m 3,0 0,2 4,0 0,-2 -4,0 z m 5,0 0,2 4,0 0,-2 -4,0 z m -8,3 0,2 2,0 0,-2 -2,0 z m 3,0 0,2 4,0 0,-2 -4,0 z m 5,0 0,2 4,0 0,-2 -4,0 z m -8,3 0,1 c 0,0.554 0.446,1 1,1 l 1,0 0,-2 -2,0 z m 3,0 0,2 4,0 0,-2 -4,0 z m 5,0 0,2 3,0 c 0.554,0 1,-0.446 1,-1 l 0,-1 -4,0 z"
       id="rect4871-2" />
    <path
       style="color:#000000;fill:#96a4ab;fill-opacity:1;fill-rule:nonzero;stroke:none;stroke-width:1;marker:none;visibility:visible;display:inline;overflow:visible;enable-background:accumulate"
       d="m 47.5,134.36228 c -0.277,0 -0.5,0.223 -0.5,0.5 l 0,6.5 -0.5,-0.5 c 0,0 -0.90625,-1 -1.65625,-1 -0.75,0 -1.34375,1 -1.34375,1 l 3.5,3.5 c 0,0.7419 0.40309,1.3735 1,1.7188 l 0,1.7812 c 0,0.277 0.223,0.5 0.5,0.5 l 5,0 c 0.277,0 0.5,-0.223 0.5,-0.5 l 0,-1.7812 c 0.59691,-0.3453 1,-0.9769 1,-1.7188 l 0,-3 0,-2.5 c 0,-0.277 -0.223,-0.5 -0.5,-0.5 l -0.5,0 c -0.75,0 -0.95312,2.6875 -1,3.5313 l 0,-3.0313 0,-0.5 c 0,0 -0.223,-0.5 -0.5,-0.5 l -0.5,0 c -0.75,0 -0.95312,2.6875 -1,3.5313 l 0,-3.0313 0,-0.5 c 0,0 -0.223,-0.5 -0.5,-0.5 l -0.5,0 c -0.75,0 -0.95312,2.6875 -1,3.5313 l 0,-1.5313 0,-4.5 c 0,-0.277 -0.223,-0.5 -0.5,-0.5 z"
       id="rect3980"
       inkscape:connector-curvature="0"
       sodipodi:nodetypes="ssccscccsssscscsssccsssccsssccsss" />
    <path
       inkscape:connector-curvature="0"
       id="path3896"
       d="m 13.75,134.36228 c -1.01633,0 -1.87741,0.6679 -2.15625,1.5938 L 11,135.36228 l -1.5,1.5 1,1 -3,3 0,1 -1,1 1,1 1,-1 1,0 3,-3 1,1 1.5,-1.5 -0.59375,-0.5937 c 0.92583,-0.2789 1.59375,-1.14 1.59375,-2.1563 0,-1.242 -1.008,-2.25 -2.25,-2.25 z m -8.25,9.5 -1.125,3.0313 c -0.22646,0.2627 -0.375,0.5949 -0.375,0.9687 0,0.828 0.672,1.5 1.5,1.5 0.828,0 1.5,-0.672 1.5,-1.5 0,-0.3738 -0.14854,-0.706 -0.375,-0.9687 z"
       style="color:#000000;fill:#96a4ab;fill-opacity:1;fill-rule:nonzero;stroke:none;stroke-width:0.05500000000000000;marker:none;visibility:visible;display:inline;overflow:visible;enable-background:accumulate"
       sodipodi:nodetypes="sccccccccccccccssccssscc" />
    <path
       style="color:#000000;fill:#96a4ab;fill-opacity:1;fill-rule:nonzero;stroke:none;stroke-width:0;marker:none;visibility:visible;display:inline;overflow:visible;enable-background:accumulate"
       d="m 70,135.36228 c -2.20914,0 -4,1.7909 -4,4 0,0.01 -8e-5,0.021 0,0.031 -0.16144,-0.023 -0.33227,-0.031 -0.5,-0.031 -1.933,0 -3.5,1.567 -3.5,3.5 0,1.7653 1.301,3.2287 3,3.4688 l 0,0.031 0.5,0 8.5,0 c 2.20914,0 4,-1.7909 4,-4 0,-2.2092 -1.79086,-4 -4,-4 -0.0536,0 -0.10315,0.029 -0.15625,0.031 -0.43434,-1.7388 -1.96996,-3.0308 -3.84375,-3.0308 z"
       id="path4745"
       inkscape:connector-curvature="0" />
    <g
       transform="translate(0,11.800007)"
       id="g5702">
      <g
         inkscape:export-ydpi="90"
         inkscape:export-xdpi="90"
         inkscape:export-filename="./renders/premium.png"
         style="fill:#3bb2d0;fill-opacity:1;display:inline"
         transform="matrix(0.5951758,0,0,0.5951758,-49.65323,30.071538)"
         id="g5704">
        <g
           inkscape:export-ydpi="300"
           inkscape:export-xdpi="300"
           inkscape:export-filename="/Users/saman/work_repos/graphics/mapbox/flyer/mapbox_flier_front_8.5x5.5.png"
           style="color:#000000;fill:#3bb2d0;fill-opacity:1;fill-rule:nonzero;stroke:none;stroke-width:55.73771286;marker:none;visibility:visible;display:inline;overflow:visible;enable-background:accumulate"
           transform="matrix(0.12086844,0,0,0.12086844,108.64001,151.52597)"
           id="g5706">
          <path
             inkscape:connector-curvature="0"
             style="color:#000000;fill:#3bb2d0;fill-opacity:1;fill-rule:nonzero;stroke:none;stroke-width:55.73771286;marker:none;visibility:visible;display:inline;overflow:visible;enable-background:accumulate"
             clip-path="none"
             d="m 252.5,-403.39664 c -26.23353,0 -47.5,21.26647 -47.5,47.5 0,26.23353 21.26647,47.50004 47.5,47.50002 l 34.53125,-2e-5 c 2.11867,-1e-5 2.96875,-1.58176 2.96875,-3.75 l 0,-87.25 c 0,-3 -1,-4 -4,-4 z m 0,19 18.5,0 0,6.84375 0,45.3125 0,6.84375 -18.5,0 c -15.74011,0 -28.5,-14.75989 -28.5,-30.5 0,-15.74011 12.75989,-28.5 28.5,-28.5 z"
             id="path5708"
             sodipodi:nodetypes="csssssccsccccsss" />
          <path
             inkscape:connector-curvature="0"
             style="color:#000000;fill:#3bb2d0;fill-opacity:1;fill-rule:nonzero;stroke:none;stroke-width:55.73771286;marker:none;visibility:visible;display:inline;overflow:visible;enable-background:accumulate"
             d="m 81,-441.39664 c -3,0 -4,1 -4,4 l 0,125 c 0,3 1,4 4,4 l 11.125,0 c 2.444295,0 3.545198,-0.69394 3.875,-2.5625 l 0,-105.4375 33.25,58.5 c 1.32604,2.33303 2.75,3.48718 4.75,3.5 2,0.0128 3.42396,-1.16697 4.75,-3.5 l 33.25,-58.5 0,104 c 0,3 1,4 4,4 l 11,0 c 3,0 4,-1 4,-4 l 0,-125 c 0,-3 -1,-4 -4,-4 l -17.125,0 c -2.49457,0 -4.14512,1.06903 -5.5,3.5 l -30.375,53.5 -30.4375,-53.59375 c -1.13065,-1.99082 -1.50429,-3.40625 -4.0005,-3.40625 z"
             id="path5710"
             sodipodi:nodetypes="sssssccssscsssssscscscs" />
          <path
             inkscape:connector-curvature="0"
             style="color:#000000;fill:#3bb2d0;fill-opacity:1;fill-rule:nonzero;stroke:none;stroke-width:55.73771286;marker:none;visibility:visible;display:inline;overflow:visible;enable-background:accumulate"
             clip-path="none"
             d="m 311.96875,-403.39664 c -2.20141,-3.2e-4 -2.96875,1.3125 -2.96875,3.9375 l 0,125.0625 c 0,3 0.99597,4 4.01632,3.99999 l 11.50957,0 c 2.7489,0 3.54605,-1.18066 3.54079,-3.875 L 328,-308.45914 c 6.0766,0.0365 12.586,0.0358 18.5,0.0625 26.12125,0.11774 47.5,-20.96203 47.5,-47.5 0,-26.23353 -21.26648,-47.5265 -47.5,-47.5 -11.54051,0.0117 -23.00312,0.002 -34.53125,0 z m 16.03125,19 18.5,0 c 15.74011,0 28.5,12.75989 28.5,28.5 0,15.74011 -12.75989,30.5 -28.5,30.5 l -18.5,0 z"
             id="path5712"
             sodipodi:nodetypes="sssscscsscssscsss" />
          <path
             clip-path="none"
             id="path5714"
             d="m 553.5,-403.39664 c 26.23353,0 47.5,21.26647 47.5,47.5 0,26.23353 -21.26647,47.5 -47.5,47.5 -26.23353,0 -47.5,-21.26647 -47.5,-47.5 0,-26.23353 21.26647,-47.5 47.5,-47.5 z m 0,19 c -15.74011,0 -28.5,12.75989 -28.5,28.5 0,15.74011 12.75989,30.5 28.5,30.5 15.74011,0 28.5,-14.75989 28.5,-30.5 0,-15.74011 -12.75989,-28.5 -28.5,-28.5 z"
             style="color:#000000;fill:#3bb2d0;fill-opacity:1;fill-rule:nonzero;stroke:none;stroke-width:55.73771286;marker:none;visibility:visible;display:inline;overflow:visible;enable-background:accumulate"
             inkscape:connector-curvature="0"
             sodipodi:nodetypes="ssssssssss" />
          <path
             sodipodi:nodetypes="ssssssccsscssccccssccc"
             inkscape:connector-curvature="0"
             id="path5716"
             d="m 412,-441.40625 c -3,0 -4,1 -4,4 l 0,125.15625 c 0,2.54936 1.57368,3.84375 4.03125,3.84375 l 34.46875,0 c 26.23353,0 47.5,-12.26647 47.5,-38.5 0,-15.08273 -7.41879,-29.0953 -22.75,-34.9375 0,0 12.47895,-7.37119 12.75,-22.5 -0.23961,-25.91569 -21.41542,-37.0625 -47.5,-37.0625 z m 15,19 9.5,0 c 15.74011,0 28.5,2.75989 28.5,18.5 0,7.50938 -3.28083,12.5053 -7.65625,15.78125 -9.30886,5.53565 -19.3433,3.71875 -30.34375,3.71875 z m 0,52 19.5,0 c 15.7401,0 28.5,7.7599 28.5,23.5 0,15.74011 -12.75989,21.5 -28.5,21.5 -6.47242,9e-5 -13.00655,0 -19.5,0 z"
             style="color:#000000;fill:#3bb2d0;fill-opacity:1;fill-rule:nonzero;stroke:none;stroke-width:55.73771286;marker:none;visibility:visible;display:inline;overflow:visible;enable-background:accumulate" />
          <path
             inkscape:connector-curvature="0"
             id="path5718"
             d="m 606.8125,-403.40625 c -2.69064,0 -3.73316,1.66812 -2.25,3.625 l 29.93779,42.4716 -31.93779,45.2784 c -1.48316,1.95688 -0.44064,3.625 2.25,3.625 l 16.15625,0 c 1.67394,0 2.62104,-0.85774 3.625,-2.28125 l 21.39685,-30.3222 21.41565,30.3222 c 1.00396,1.42351 1.95106,2.28125 3.625,2.28125 l 16.15625,0 c 2.69064,0 3.73316,-1.66812 2.25,-3.625 L 657.5,-357.3125 l 29.9375,-42.46875 c 1.48316,-1.95688 0.44064,-3.625 -2.25,-3.625 l -16.15625,0 c -1.67394,0 -2.62104,0.85773 -3.625,2.28125 l -19.40511,27.50802 -19.40739,-27.50802 c -1.00396,-1.42352 -1.95106,-2.28125 -3.625,-2.28125 z"
             style="color:#000000;fill:#3bb2d0;fill-opacity:1;fill-rule:nonzero;stroke:none;stroke-width:55.73771286;marker:none;visibility:visible;display:inline;overflow:visible;enable-background:accumulate"
             sodipodi:nodetypes="scccsscccsscccsscccss" />
        </g>
      </g>
      <path
         inkscape:export-ydpi="90"
         inkscape:export-xdpi="90"
         inkscape:export-filename="/Users/saman/Dropbox/mapbox-redesign/sketch-wireframe.png"
         inkscape:connector-curvature="0"
         style="font-size:medium;font-style:normal;font-variant:normal;font-weight:normal;font-stretch:normal;text-indent:0;text-align:start;text-decoration:none;line-height:normal;letter-spacing:normal;word-spacing:normal;text-transform:none;direction:ltr;block-progression:tb;writing-mode:lr-tb;text-anchor:start;baseline-shift:baseline;color:#000000;fill:#3bb2d0;fill-opacity:1;fill-rule:nonzero;stroke:none;stroke-width:40;marker:none;visibility:visible;display:inline;overflow:visible;enable-background:accumulate;font-family:Sans;-inkscape-font-specification:Sans"
         d="m 8.0025,85.562189 c -0.13461,-7.99e-4 -0.26929,0.03309 -0.3875,0.0975 l -7.2,3.965 c -0.12472,0.06848 -0.22748,0.17269 -0.3,0.295001 C 0.0425,90.042 2.4e-4,90.18241 0,90.32469 l 0,8.0725 c 4.8e-4,0.28456 0.16557,0.56304 0.415,0.7 l 7.2,3.965 c 0.11737,0.0644 0.25119,0.1 0.385,0.1 0.13382,0 0.26764,-0.0356 0.385,-0.1 l 7.2,-3.965 c 0.24944,-0.13696 0.41454,-0.41544 0.415,-0.7 l 0,-8.0725 c -2.1e-4,-0.14228 -0.0425,-0.28269 -0.115,-0.405 -0.0725,-0.122311 -0.17528,-0.22652 -0.3,-0.295001 l -7.2,-3.965 c -0.11674,-0.0636 -0.24955,-0.09745 -0.3825,-0.0975 z m -0.007,1.622501 c 0.0339,4.34e-4 0.0729,0.01296 0.1175,0.0375 0.44026,0.242488 0.88051,0.483618 1.32,0.7275 0.12185,0.06762 0.1675,0.171571 0.1675,0.327499 l 0,0.715001 c 0,0.153973 -0.0442,0.257692 -0.1625,0.324999 l -0.39751,0.232501 0,0.172499 c 0,0.24 -0.0835,0.320001 -0.32,0.320001 l -0.0975,0 -0.6725,-0.795 c -0.0694,-0.08208 -0.11,-0.129618 -0.11,-0.2825 l 0,-1.5675 c 0,-0.116611 0.0534,-0.21362 0.155,-0.2125 z m -0.84,0.465 c 0.0771,0.0058 0.125,0.08993 0.125,0.2175 l 0,0.434999 c 0,0.120697 -0.0255,0.176915 -0.07,0.235001 l -0.525,0.624999 -0.0875,0.105 c -0.0885,0.105559 -0.1975,0.06977 -0.1975,-0.08 l 0,-0.912501 c 0,-0.152458 0.0421,-0.26607 0.16,-0.324999 l 0.51,-0.277501 c 0.0316,-0.01727 0.0593,-0.02444 0.085,-0.0225 z m -1.47,0.8025 c 0.0851,-0.007 0.155,0.05047 0.155,0.184999 l 0,1.527501 0.7125,0.395 c 0.12206,0.0672 0.1675,0.17157 0.1675,0.3275 l 0,0.2875 -0.505,0.2825 -0.55,-0.65 -1.0125,0.5575 c -0.19831,0.10921 -0.24256,0.21891 -0.0375,0.33 l 0.8175,0.45 c 0.12207,0.0672 0.1675,0.17157 0.1675,0.3275 l 0,0.165 0.4,0.22 0,-0.575 c 0,-0.16 -0.005,-0.26197 0.1675,-0.3575 l 0.81,-0.4475 0.7575,0.8975 -0.975,0.54 c -0.64432,0.76888 -1.28578,1.54028 -1.935,2.305 -0.0783,0.093 -0.16769,0.12033 -0.25,0.075 -0.45324,-0.2496 -0.82122,-0.45168 -1.26,-0.695 l -0.84,1.0125 c 0.31933,0.17553 0.63896,0.35054 0.9575,0.5275 0.12182,0.0677 0.1675,0.17157 0.1675,0.3275 l 0,0.585 1.675,0.9225 c 0.30713,0.1686 0.5275,0.79 0.5275,0.79 l 1.2525,0.6875 c 0.12207,0.0672 0.1675,0.17157 0.1675,0.3275 l 0,0.2925 c -0.005,0.13635 -0.0261,0.24605 -0.125,0.3 l -0.5225,0.285 c -0.071,0.0387 -0.16097,0.0355 -0.23,-0.003 L 3.33,98.99169 C 3.20794,98.92449 3.1625,98.82012 3.1625,98.66419 l 0,-0.0975 0.7225,-0.86 -2.12,-1.1675 C 1.64294,96.47199 1.6,96.36938 1.6,96.21169 l 0,-3.955 0,-0.4475 0,-0.67 0,-0.2225 c 0,-0.15593 0.0429,-0.26278 0.165,-0.33 l 0.1525,-0.085 c 1.24061,-0.681235 3.68,-2.0225 3.68,-2.0225 0.0295,-0.01623 0.0591,-0.02516 0.0875,-0.0275 z m 6.675,1.144999 c 0.0481,0 0.10139,0.02334 0.185,0.0675 0.56108,0.310072 1.12574,0.613661 1.6875,0.922501 0.12207,0.0672 0.1675,0.17157 0.1675,0.3275 l 0,3.8525 -0.285,-0.3375 c -0.0891,-0.10548 -0.18542,-0.10684 -0.285,-0.0525 l -0.3375,0.185 0.7875,0.935 c 0.0764,0.0907 0.12,0.13407 0.12,0.295 l 0,2.01 c 0,0.15593 -0.0454,0.26031 -0.1675,0.3275 l -2.15,1.185 c -0.092,0.0507 -0.19073,0.0442 -0.2725,-0.0525 -0.29093,-0.34405 -0.6248,-0.72865 -0.95,-1.1225 -0.24006,0.13275 -0.48689,0.278 -0.7275,0.4 -0.12276,0.0622 -0.19964,0.0663 -0.32,0 -0.21249,-0.1171 -0.44728,-0.23832 -0.6825,-0.375 -0.12049,-0.07 -0.1675,-0.17407 -0.1675,-0.33 -8.4e-4,-0.38246 -0.003,-0.75775 -0.002,-1.1475 2.1e-4,-0.13025 0.0449,-0.26586 0.1575,-0.4 l 1.2825,-1.53 -0.48,0 c -0.16,0 -0.32,-0.16 -0.32,-0.32 l 0,-0.4375 c 0,-0.15593 0.0456,-0.26003 0.1675,-0.3275 0.0783,-0.0433 0.395,-0.2225 0.395,-0.2225 l -0.002,-0.89 c -2.9e-4,-0.11185 0.0379,-0.24607 0.1675,-0.3175 l 1.1925,-0.6575 0,-1.33 c 0,-0.15593 0.0456,-0.259874 0.1675,-0.3275 0.14915,-0.0827 0.33397,-0.182562 0.5025,-0.275 0.0726,-0.03843 0.11997,-0.055 0.17,-0.055 z m -1.96,5.160001 0.89,0.4925 1.91,-1.0525 0,-0.98 -0.71,0.39 c -0.0994,0.055 -0.19614,0.0536 -0.285,-0.05 l -0.2525,-0.3 c -0.0783,-0.0931 -0.16292,-0.11032 -0.25,-0.075 l -0.94,0.5175 -0.36251,1.0575 z"
         id="path5720" />
    </g>
  </g>
</svg>
